<svg xmlns="http://www.w3.org/2000/svg" xmlns:xlink="http://www.w3.org/1999/xlink" height="413.7" preserveAspectRatio="xMidYMid meet" version="1.0" viewBox="-0.5 -0.3 412.9 413.7" width="412.9" zoomAndPan="magnify"><g id="change1_1"><path d="M52.14,222.47c0.25-1.77,0.51-3.54,0.77-5.36c-0.58,0.09-0.68,0.52-0.83,0.84c-1,2.16-1.68,4.39-1.2,6.81 c0.09,0.46-0.03,0.87-0.14,1.3c-1.06,4.39-2.87,8.41-5.65,11.99c-0.18,0.23-0.34,0.47-0.51,0.7c0.3,0.4,0.54,0.09,0.74-0.06 c3.95-2.92,8.14-5.45,12.65-7.38c4.29-1.84,8.75-3.1,13.45-3.31c5.89-0.26,11.74,0.09,17.54,1.22c9.68,1.87,18.86,5.19,27.73,9.43 c9.1,4.35,18.07,8.95,27.24,13.15c2.18,1,4.38,1.96,6.62,2.81c0.45,0.17,0.87,0.44,1.4,0.38c0.15-0.57-0.15-1.06-0.31-1.56 c-1.97-6.34-3.22-12.82-3.92-19.41c-0.55-5.18-0.5-10.37,0.14-15.54c0.7-5.66,2.44-10.99,5.56-15.79 c4.24-6.53,10.29-10.01,18.06-10.47c2.02-0.12,4.01,0.15,5.97,0.64c2.05,0.51,3.6,1.7,4.73,3.48c1.37,2.16,2.17,4.5,2.1,7.07 c-0.12,4.41-3.79,7.69-8.19,7.35c-0.79-0.06-1.55-0.26-2.26-0.61c-1.6-0.8-2.39-2.38-2.07-4.14c0.2-1.08,0.69-2.04,1.39-2.88 c0.47-0.56,0.98-1.09,1.46-1.65c1.39-1.64,1.59-3.37,0.59-5.3c-0.57-1.11-1.62-1.37-2.72-1.39c-3.56-0.05-6.9,0.77-9.89,2.74 c-3.78,2.49-6.5,5.9-8.45,9.95c-2.11,4.38-3.19,9.02-3.58,13.85c-0.74,9.14,0.52,18.08,2.74,26.91c0.61,2.42,1.41,4.79,2.1,7.19 c0.19,0.67,0.55,1.07,1.24,1.29c10.42,3.37,21.03,5.47,32.04,4.99c5.43-0.24,10.69-1.21,15.65-3.55c3.83-1.8,7.11-4.29,9.65-7.7 c2.28-3.06,3.29-6.52,3.39-10.29c0.03-1.31-0.12-2.63-1.47-3.25c-1.62-0.74-3.3-1.01-4.84,0.26c-0.45,0.37-0.86,0.8-1.3,1.19 c-0.74,0.65-1.51,1.25-2.42,1.64c-2.69,1.14-5.04-0.03-5.77-2.87c-1.08-4.19,1.89-8.67,6.21-9.18c3.71-0.44,6.95,0.79,9.66,3.35 c0.99,0.93,1.58,2.13,1.86,3.44c1.85,8.89-0.57,16.4-7.54,22.24c-5.02,4.21-11.02,6.27-17.43,7.18c-6.59,0.93-13.18,0.77-19.76-0.19 c-5.39-0.78-10.7-1.89-15.9-3.51c-0.45-0.14-0.9-0.4-1.49-0.28c-0.04,0.54,0.24,1,0.42,1.48c1.85,4.91,4.24,9.57,6.45,14.32 c3.39,7.28,7.14,14.38,10.5,21.67c3.77,8.18,6.64,16.63,8.39,25.46c1.13,5.7,1.49,11.45,1.24,17.25c-0.17,4.05-1.08,7.94-2.51,11.72 c-1.9,5.01-4.53,9.62-7.65,13.97c-0.34,0.47-0.73,0.92-0.91,1.5c0.51,0.04,0.81-0.31,1.15-0.58c3.6-2.85,7.72-4.58,12.14-5.67 c0.44-0.11,0.86-0.06,1.3,0c2.47,0.31,4.75-0.29,6.9-1.49c0.07-0.04,0.1-0.16,0.23-0.4c-1.7-0.24-3.23,0.63-4.83,0.49 c3.59-2.73,7.52-4.56,12.02-5.13c1.71-0.22,3.41-0.23,5.13-0.23c0.45,0,0.94,0.06,1.01,0.63c0.06,0.48-0.33,0.66-0.69,0.83 c-0.09,0.04-0.17,0.11-0.26,0.14c-3.3,1.13-5.75,3.46-8.22,5.77c-1.12,1.05-2.41,1.84-3.8,2.46c-1.59,0.71-3.23,0.7-4.88,0.25 c-1.17-0.32-1.97-1.05-2.49-2.35c-2.14,0.72-4.28,1.12-6.31,2c-3.55,1.54-6.59,3.83-9.49,6.32c-2.45,2.1-4.83,4.29-7.06,6.63 c-3.32,3.48-6.97,6.59-10.81,9.48c-3.76,2.84-8.01,4.7-12.5,6.04c-11.86,3.52-23.79,3.96-35.79,0.71 c-3.95-1.07-7.69-2.62-11.13-4.84c-0.2-0.13-0.38-0.31-0.77-0.2c0.2,0.75,0.71,1.31,1.11,1.92c0.4,0.62,0.8,1.24,1.26,1.81 c9.47,11.7,21.67,17.91,36.78,18c5.46,0.03,10.81-0.98,16.01-2.72c6.14-2.05,12.02-4.71,17.77-7.67c3.79-1.95,7.67-3.7,11.53-5.49 c0.94-0.43,1.93-0.72,2.94-0.9c3.09-0.56,5.87-1.83,8.45-3.58c1.34-0.91,2.76-1.68,4.22-2.36c2.21-1.03,4.53-1.58,6.98-1.44 c2.32,0.14,4.58-0.04,6.82-0.73c1.77-0.55,3.57-0.47,5.35,0.08c1.81,0.56,3.64,1.08,5.63,1.67c-0.54-1.03-1.41-1.39-2.17-1.78 c-3.44-1.73-6.97-2.65-10.91-1.73c-3.28,0.77-6.59,1.47-9.87,2.28c-3.15,0.77-6.19,1.83-9.1,3.26c-0.46,0.23-0.9,0.6-1.54,0.49 c1.3-1.98,2.53-3.96,3.86-5.87c2.08-3,4.92-5,8.39-6.1c0.42-0.13,0.85-0.27,1.28-0.32c2.47-0.27,4.74-0.03,5.96,2.56 c0.6,0.08,0.97-0.28,1.37-0.52c4.3-2.58,8.99-3.2,13.87-2.77c2.21,0.19,4.19,0.94,5.55,2.86c1.34,1.9,1.18,3.94-0.49,5.55 c-0.85,0.82-1.9,1.33-2.99,1.93c0.43,0.49,0.94,0.48,1.37,0.62c2.86,0.95,5.1,2.62,6.51,5.36c0.58,1.12,0.87,2.27,0.79,3.53 c-0.08,1.28-0.29,2.53-0.63,3.76c-0.5,1.79-1.12,3.54-1.33,5.41c-0.11,1.01-1.32,2.11-2.26,2.22c-0.63,0.08-1-0.34-1.29-0.81 c-0.38-0.6-0.44-1.29-0.52-1.97c-0.14-1.27-0.25-2.53-0.55-3.78c-0.65-2.67-2.04-4.8-4.33-6.41c-3.75-2.64-7.97-3.92-12.44-4.47 c-6.06-0.76-11.91,0.23-17.57,2.42c-7.54,2.92-14.86,6.31-22.07,9.96c-4.24,2.14-8.5,4.26-12.97,5.87 c-10.92,3.93-22.04,4.82-33.35,1.9c-7.25-1.87-13.82-5.19-19.77-9.7c-4.57-3.46-8.46-7.56-11.32-12.58 c-0.9-1.58-1.71-3.19-2.31-4.91c-0.14-0.41-0.19-0.87-0.54-1.18c-0.44-0.14-0.59,0.25-0.82,0.45c-0.85,0.74-1.67,1.51-2.53,2.24 c-3.76,3.21-8.26,4.31-13.07,4.48c-2.36,0.08-4.68-0.27-6.99-0.77c-3.68-0.81-6.71-2.65-9.08-5.58c-0.27-0.34-0.47-0.75-0.95-1.02 c-0.93,0.63-1.87,1.33-2.87,1.93c-4.05,2.44-8.42,3.89-13.17,4.13c-2.43,0.12-4.81-0.26-7.06-1.14c-2.78-1.08-4.75-3.07-5.7-5.93 c-1.48-4.44-1.21-8.87,0.21-13.28c1.04-3.24,2.42-6.3,4.61-8.95c0.12-0.15,0.22-0.32,0.17-0.69c-0.79-0.6-1.62-1.35-2.42-2.13 c-1.64-1.61-2.79-3.51-3.51-5.69c-1.84-5.64-1.79-11.27,0.05-16.89c0.63-1.93,1.85-3.55,3.09-5.13c0.86-1.11,1.76-2.2,2.76-3.08 c-0.08-0.43-0.33-0.51-0.55-0.59c-6.3-2.22-11.48-6.05-15.84-11.04c-5.05-5.79-8.74-12.34-11.17-19.64 c-2.78-8.37-3.13-16.88-1.83-25.53c1.03-6.81,3.52-13.12,6.51-19.26c2.72-5.59,5.55-11.12,8.08-16.8c1.49-3.35,2.95-6.72,4.24-10.16 c1.95-5.2,2.9-10.57,2.38-16.13c-0.46-4.89-1.75-9.51-4.66-13.59c-1.5-2.1-3.45-3.42-5.89-4.11c-1.33-0.37-2.69-0.51-4.06-0.65 c-0.73-0.07-1.47-0.14-2.12-0.53c-0.86-0.51-0.94-1.04-0.53-1.95c0.5-1.11,1.31-1.64,2.49-1.71c0.98-0.06,1.92-0.36,2.86-0.64 c1.59-0.47,3.19-0.94,4.85-1.15c3.59-0.46,6.12,1.28,8.15,3.94c1.04,1.36,1.66,2.98,2,4.68c0.58-0.11,0.56-0.6,0.73-0.91 c0.42-0.78,0.91-1.51,1.51-2.16c1.38-1.48,3.37-1.76,5.08-0.69c1.27,0.8,2.27,1.85,2.74,3.33c0.24,0.75,0.47,1.5,0.53,2.28 c0.41,4.83-0.08,9.49-2.59,13.77c-0.25,0.42-0.46,0.86-0.69,1.29c-0.02,0.04-0.02,0.1-0.03,0.14c0.03,0.09,0.05,0.23,0.11,0.26 c2.59,1.36,2.96,3.69,2.42,6.17c-0.72,3.33-2.38,6.19-5.02,8.42c-1.58,1.34-3.35,2.38-5.08,3.48c-0.69,0.44-1.38,0.89-2.16,1.39 c0.04-0.75,0.38-1.23,0.62-1.74c1.24-2.56,2.21-5.22,2.93-7.98c1.05-4.03,2.06-8.06,2.74-12.17c0.73-4.4-0.95-8.12-3.34-11.71 c-0.42,0.47-0.15,0.77-0.06,1.06c0.43,1.51,0.84,3.02,1.31,4.51c0.61,1.93,0.61,3.86,0.02,5.78c-0.54,1.75-0.85,3.54-0.67,5.36 c0.43,4.38-1.07,8.2-3.42,11.74c-1.95,2.93-3.45,6.02-4.04,9.52c-0.18,1.07-0.62,2.06-1.06,3.04c-2.12,4.68-4.38,9.29-6.69,13.88 c-2.45,4.86-4.6,9.85-6.25,15.03c-2.48,7.81-3.58,15.78-2.02,23.9c2.44,12.68,8.82,22.88,19.58,30.22c0.42,0.29,0.83,0.61,1.34,0.69 c0.19-0.35,0.01-0.54-0.12-0.74c-3.37-5.31-5.17-11.18-6.13-17.32c-1.85-11.83-0.59-23.32,3.87-34.45 c1.59-3.95,3.96-7.41,6.68-10.65c2.68-3.19,5.54-6.19,8.5-9.13c3.23-3.2,6.28-6.59,8.87-10.36c2.27-3.31,3.69-6.98,4.51-11.06 c-1.37-0.6-2.14-1.71-2.41-3.2c-0.33-1.82-0.01-3.49,0.86-5.1c0.89-1.66,2.04-3.13,3.39-4.4c1.78-1.68,3.06-3.66,4.02-5.89 c0.3-0.69,0.47-1.52,1.3-1.8c0.67,0.18,0.68,0.7,0.68,1.19c0.07,5.39-0.81,10.53-4.06,15.03c-0.51,0.71-0.82,1.56-1.44,2.2 L52.14,222.47z M180.61,329.92c0.6-0.89,0.12-1.69,0-2.45c-1.26-7.91-3.31-15.6-6.4-23.01c-2.96-7.1-6.47-13.94-9.81-20.86 c-3.8-7.89-7.89-15.66-10.74-23.97c-0.24-0.69-0.71-0.98-1.34-1.2c-1.75-0.63-3.5-1.25-5.22-1.97c-5.37-2.25-10.6-4.84-15.84-7.36 c-7.63-3.67-15.13-7.6-22.95-10.89c-8.17-3.44-16.65-5.74-25.44-6.89c-0.49-0.06-0.99-0.17-1.75,0.04c0.57,0.22,0.87,0.35,1.19,0.45 c3.43,1.11,6.56,2.77,9.44,4.96c2.49,1.9,4.98,3.78,6.42,6.69c0.19,0.39,0.49,0.74,0.78,1.06c2.95,3.35,6.77,5.06,11.06,5.86 c0.2,0.04,0.38,0.03,0.66-0.37c-3.19-1.36-6.44-2.62-8.95-5.33c1.4-0.12,2.61-0.2,3.82-0.34c3.68-0.43,7,0.35,9.82,2.85 c0.88,0.78,1.79,1.52,2.65,2.32c1.81,1.69,3.88,2.8,6.4,2.92c0.2,0.01,0.39,0.01,0.58,0.04c0.32,0.06,0.55,0.28,0.58,0.59 c0.03,0.32-0.17,0.56-0.47,0.68c-0.22,0.09-0.48,0.15-0.71,0.14c-1.42-0.08-2.82,0.21-4.22,0.26c-6.55,0.24-12.61-1.36-17.94-5.33 c-0.29-0.21-0.55-0.52-0.97-0.49c-0.07,0.34,0.09,0.6,0.19,0.87c0.95,2.41,1.3,4.91,1.24,7.48c-0.04,1.78-0.31,3.52-1.23,5.09 c-1.1,1.89-2.7,2.87-4.97,2.73c-2.61-0.17-4.67-1.45-6.66-2.92c0.09-0.66,0.59-0.7,0.98-0.86c0.91-0.37,1.83-0.67,2.7-1.14 c1.42-0.76,2.23-1.89,2.14-3.54c-0.1-1.94,0.28-3.81,0.77-5.65c0.74-2.78,0.29-5.43-0.77-8.03c-0.37-0.92-0.91-1.74-1.69-2.37 c-2.75-2.24-5.66-4.19-9.08-5.27c-4.41-1.38-8.9-2.28-13.55-2.33c-2.9-0.03-5.76,0.32-8.64,0.56c-1.77,0.15-3.45,0.63-5.09,1.31 c-6.01,2.52-11.43,6-16.43,10.13c-6.52,5.39-11.91,11.74-15.81,19.28c-3.76,7.27-5.38,15.1-5.82,23.19 c-0.45,8.21,0.66,16.22,3.78,23.89c1.54,3.77,3.7,7.11,6.88,9.73c1.43,1.18,3.01,2.04,4.88,2.2c2.34,0.2,4.69,0.22,7.03-0.13 c7.2-1.07,13.09-4.47,17.79-9.96c2.33-2.72,3.88-5.86,4.62-9.39c1.37-6.53-2.09-14.46-8.59-17.39c-4.56-2.06-9.34-2.58-14.22-1.96 c-3.11,0.4-5.47,2.05-6.3,5.34c-0.16,0.62-0.34,1.22-0.49,1.84c-0.09,0.38-0.17,0.77,0.17,1.25c0.73-1.32,0.86-2.84,1.71-4.03 c0.91-1.27,2.09-2.13,3.71-2.5c0.16,0.68-0.03,1.23-0.18,1.78c-0.34,1.28-0.85,2.5-1.43,3.69c-0.96,1.97-1.56,4.02-1.04,6.24 c0.42,1.77,0.91,3.5,2.15,4.92c0.62,0.71,0.43,1.46-0.4,1.53c-1.94,0.15-3.91,0.33-5.68-0.86c-2.19-1.47-3.43-3.61-4.17-6.04 c-1.24-4.1-0.4-7.24,3.04-10.3c1.63-1.45,3.52-2.63,5.5-3.64c1.05-0.54,2.16-0.92,3.31-1.17c4.34-0.92,8.67-0.88,12.95,0.25 c4.03,1.07,7.29,3.34,9.63,6.8c4.72,6.99,4.95,14.33,0.74,21.47c-5.97,10.13-15.17,15.07-26.87,15.39c-1.31,0.04-2.6,0.53-3.93,0.11 c-0.25-0.08-0.47,0.09-0.66,0.25c-0.79,0.65-1.59,1.29-2.09,2.23c-1.13,2.12-2.17,4.27-3.07,6.5c-1.76,4.39-1.89,8.86-0.84,13.41 c0.36,1.54,0.91,3.03,1.91,4.25c1.29,1.58,2.39,3.59,5.06,2.83c0.6-0.17,1.1,0.31,1.34,0.92c0.21,0.54,0.22,1.07-0.29,1.46 c-0.46,0.36-0.78,0.88-1.31,1.16c-1.11,0.59-1.89,1.53-2.61,2.53c-1.96,2.7-3.05,5.78-3.91,8.96c-0.31,1.16-0.21,2.32-0.01,3.49 c0.43,2.5,1.73,4.66,2.67,6.97c0.23,0.56,0.68,0.8,1.18,1.03c1.25,0.57,2.47,1.2,3.75,1.69c2.61,1.01,5.27,1.52,8.01,0.43 c1.09-0.43,2.23-0.76,3.3-1.23c2.65-1.18,5.22-2.49,6.81-5.11c0.27-0.45,0.72-0.79,1.09-1.18c0.3-0.31,0.67-0.36,1.08-0.27 c0.9,0.2,1.47,0.93,1.13,1.87c-0.41,1.15,0.13,1.9,0.74,2.65c1.39,1.72,3.18,2.92,5.29,3.55c4.58,1.36,9.17,1.42,13.71-0.21 c2.59-0.93,5.05-2.12,7.45-3.45c0.89-0.5,1.49-1.26,2.11-2c0.16-0.19,0.31-0.44,0.23-0.67c-0.34-1.08,0.11-2.13,0.1-3.2 c-0.08-8.18,2.53-15.39,7.92-21.54c3.78-4.31,8.36-7.34,14.04-8.56c7.42-1.59,15.79,1.94,19.76,8.32c1.64,2.65,2.41,5.56,2.68,8.62 c0.48,5.54-0.03,10.87-3.65,15.46c-0.24,0.31-0.45,0.64-0.66,0.97c-3.03,4.6-7.62,5.99-12.65,3.81c-0.81-0.35-1.56-0.8-2.3-1.29 c-2.88-1.86-3.59-4.62-3.26-7.79c0.1-1.03,0.78-1.27,1.63-0.65c3.56,2.6,7.32,3.08,11.3,1.03c1.18-0.61,2.42-1.07,3.69-1.41 c0.49-0.13,1-0.34,1.52-0.13c0.05,0.6-0.21,1.02-0.43,1.45c-0.85,1.6-2.17,2.59-3.88,3.16c-0.7,0.23-1.51,0.29-2.13,0.93 c4.15,0.4,7.86-2.42,8.41-6.6c0.65-4.93,0.13-9.75-1.94-14.36c-2.88-6.4-10.68-9.93-17.25-8.62c-3.28,0.65-6.25,2-8.84,4.1 c-7.95,6.47-11.53,14.85-10.82,25.07c0.12,1.72,0.75,3.25,1.78,4.59c1.35,1.75,2.91,3.31,4.75,4.55c2.82,1.91,5.9,3.28,9.15,4.26 c11.64,3.52,23.28,3.23,34.91-0.03c4.03-1.13,7.84-2.79,11.41-4.98c6.48-3.97,12.17-8.88,16.9-14.85 c3.93-4.97,7.35-10.26,9.73-16.17c0.52-1.28,0.9-2.58,1.06-3.96c0.5-4.24,0.87-8.47,0.44-12.74c-0.65-6.48-2.29-12.58-6.26-17.91 c-1.38-1.85-3.07-3.11-5.3-3.68c-2.17-0.56-4.33-0.68-6.52-0.06c-1.65,0.46-3.34,0.82-5.07,0.7c-1.99-0.14-3.25,0.84-4.03,2.56 c-0.38,0.84-0.7,1.72-1.05,2.58c-0.15,0.37-0.29,0.75-0.91,0.61c-0.59-0.99-1.33-1.97-1.83-3.07c-2.27-5.07-0.47-8.61,4.84-9.49 c3.05-0.51,6.05-0.17,8.97,0.82c0.45,0.15,0.86,0.47,1.39,0.37c0.05-0.4-0.23-0.63-0.42-0.88c-2.95-3.93-4.53-8.37-5.23-13.23 c-0.44-3.1,0.24-6.14,0.12-9.2c-0.01-0.14,0.05-0.29,0.09-0.43c0.1-0.3,0.29-0.52,0.63-0.53c0.42-0.01,0.62,0.26,0.69,0.62 c0.04,0.19,0.02,0.39,0.03,0.59c0.14,2.41,1.13,4.44,2.77,6.16c0.94,1,1.81,2.06,2.7,3.1c2.24,2.62,2.94,5.68,2.68,9.03 c-0.08,1.12-0.19,2.24-0.29,3.36c-0.03,0.31,0.16,0.69-0.24,0.88c-2.82-2.6-3.96-6.19-5.65-9.48c0.11,2.3,0.72,4.49,1.66,6.51 c1.41,3.05,3.33,5.77,6.55,7.25c0.22,0.1,0.43,0.23,0.61,0.39c3.92,3.58,7.01,7.74,9.06,12.67 C179.86,328.39,179.97,329.24,180.61,329.92z M194.7,359.31c0,0.1,0.01,0.19,0.01,0.27c0.13-0.04,0.26-0.05,0.37-0.12 c0.04-0.03,0.02-0.16,0.02-0.25C194.97,359.25,194.84,359.28,194.7,359.31z M279.31,406.65c1.69-1.09,3.41-2.12,4.92-3.46 c3.33-2.97,7.2-5.05,11.2-6.91c3.73-1.73,7.66-2.64,11.8-2.63c2.36,0,4.68,0.31,7.01,0.64c8.94,1.27,17.69,3.35,26.31,6.02 c13.68,4.24,27.46,4.38,41.31,0.87c2.8-0.71,5.55-1.63,8.14-2.92c2.6-1.3,5.33-2.18,8.11-2.98c3.86-1.11,7.69-1.37,11.55-0.02 c0.78,0.27,1.57,0.33,2.14-0.42c0.54-0.71,0.39-1.49,0.03-2.22c-0.22-0.44-0.47-0.87-0.79-1.23c-1.58-1.8-3.59-2.64-5.99-2.6 c-0.6,0.01-1.22,0.2-2.02-0.02c0.64-0.64,1.16-1.14,1.66-1.66c1.75-1.86,3.36-3.83,4.34-6.22c1.03-2.5,1.77-5.08,2.27-7.73 c0.2-1.07,0.13-2.14-0.08-3.21c-0.48-2.43-2.04-4.08-3.92-5.48c-3.34-2.5-7.23-2.88-11.19-2.58c-1.84,0.14-3.63,0.8-5.23,1.82 c-0.75,0.48-1.25,1.12-1.11,2.07c0.13,0.92,0.72,1.47,1.56,1.77c0.92,0.33,1.83,0.25,2.73-0.06c1.02-0.35,1.97-0.87,2.92-1.38 c0.91-0.49,1.87-0.85,2.9-0.98c0.56-0.07,1.07,0.01,1.51,0.4c1.28,1.14,2.6,2.28,3.33,3.87c2.38,5.14,2.07,9.92-1.91,14.78 c-0.16,0.2-0.31,0.52-0.71,0.36c-0.22-0.46-0.07-0.95-0.05-1.42c0.05-1.99-0.66-3.66-2.14-4.96c-2-1.76-4.32-2.86-7.01-3.06 c-1.36-0.1-2.63,0.22-3.73,1.06c-0.46,0.35-0.71,0.81-0.62,1.4c0.1,0.64,0.6,0.84,1.16,0.94c0.82,0.14,1.59,0.37,2.31,0.87 c1.71,1.19,2.06,3.02,2.42,4.85c0.3,1.55-0.03,2.91-1.38,3.91c-0.47,0.35-0.87,0.8-1.35,1.13c-4.93,3.31-10.25,5.7-16.14,6.72 c-3.49,0.6-7.02,0.56-10.53,0.87c-4.55,0.39-8.98-0.35-13.41-1.19c-0.29-0.05-0.72,0.01-0.76-0.49c0.43-0.29,0.94-0.27,1.41-0.37 c2.22-0.47,4.34-1.21,6.3-2.36c4.05-2.39,6.64-5.84,7.51-10.51c0.18-0.94-0.05-1.72-0.63-2.46c-2.28-2.89-4.81-5.55-7.55-8 c-0.22-0.2-0.54-0.32-0.69-0.79c1.38,0.21,2.42,0.81,3.43,1.49c1.72,1.16,3.08,2.72,4.57,4.13c0.29,0.28,0.49,0.74,1.09,0.7 c0.12-1.77-0.22-3.42-1.15-4.91c-1.79-2.87-4.33-4.93-7.37-6.31c-3.53-1.61-7.29-1.73-11.09-1.28c-0.73,0.09-1.42,0.36-2.08,0.7 c-0.5,0.26-0.93,0.6-0.88,1.23c0.05,0.62,0.58,0.69,1.06,0.83c0.9,0.26,1.85,0.56,2.39,1.33c0.81,1.15,1.62,2.3,2.09,3.68 c1.64,4.78,5.03,7.69,9.91,8.89c1.14,0.28,2.29,0.54,3.43,0.8c0.71,0.16,1.36,0.42,1.78,1.15c-0.81,2.06-2.07,3.82-3.83,5.23 c-2.26,1.81-4.82,2.97-7.64,3.59c-2.06,0.45-4.15,0.66-6.26,0.76c-4.32,0.2-8.6-0.22-12.89-0.64c-5.7-0.56-11.42-0.83-17.08-1.81 c-2.26-0.39-4.57-0.57-6.86-0.75c-4.32-0.34-8.61-0.13-12.84,0.86c-2.31,0.54-4.5,1.32-6.51,2.61c-0.44,0.28-0.91,0.51-1.34,0.76 c-0.41-0.39-0.26-0.81-0.3-1.18c-1.22-11.42-6.54-20.37-16.21-26.61c-4.51-2.91-9.57-4.68-14.66-6.28c-1.85-0.59-3.83-0.8-5.76-1.13 c-0.72-0.12-1.5-0.29-2.28,0.39c0.91,0.34,1.67,0.65,2.45,0.92c2.77,0.98,5.46,2.14,7.95,3.73c0.33,0.21,0.73,0.36,0.86,0.76 c0.24,0.74,0.85,1.04,1.48,1.32c0.58,0.27,1.11,0.62,1.6,1.03c6.2,5.21,11.01,11.37,13.31,19.28c0.63,2.16,1.18,4.34,1.68,6.54 c0.2,0.88,0.22,1.74,0.03,2.62c-0.7,3.31-1.43,6.61-3.63,9.35c-0.49,0.61-0.84,1.33-0.66,2.16 C276.46,407.77,277.81,407.62,279.31,406.65z M19.5,121.23c0.91-1.47,1.58-3.04,2.01-4.71c0.81-3.19,1.34-6.41,1.35-9.72 c0.03-5.51-0.76-10.93-1.62-16.35c-0.13-0.82-0.29-1.64-0.33-2.47c-0.25-4.65-0.69-9.27-1.18-13.9c-0.39-3.71-0.35-7.43-0.03-11.15 c0.16-1.86,0.48-3.69,1.05-5.47c0.99-3.1,2.59-5.81,5.15-7.87c1.05-0.85,2.16-1.65,3.49-1.86c0.65,0.77,0.85,1.62,1.05,2.46 c0.29,1.24,0.51,2.5,0.88,3.71c1.31,4.24,4.02,7.2,8.18,8.8c0.46,0.18,0.95,0.29,1.37,0.51c1.87,0.99,3.71,1.98,4.16,4.37 c0.19,1.01,1.04,1.12,1.71,0.3c0.64-0.78,0.86-1.74,1.01-2.72c0.32-2.05,0.14-4.1-0.06-6.15c-0.49-4.85-3.04-8.48-6.69-11.47 c-0.64-0.52-1.37-0.94-2.17-1.21c-1.19-0.4-2.39-0.65-4.02-0.49c1.32,1.32,2.39,2.36,3.43,3.44c1.3,1.35,2.44,2.81,3.06,4.61 c0.1,0.29,0.36,0.6-0.02,0.93c-2.57-2.91-5.33-5.6-8.36-8.02c-0.87-0.69-1.75-0.96-2.85-0.74c-3.71,0.75-6.73,2.61-9.03,5.59 c-1.96,2.52-3.09,5.42-3.7,8.54c-0.09,0.44-0.19,0.89-0.3,1.42c-0.51-0.49-0.49-1.01-0.57-1.47c-0.87-4.63-1.55-9.27-1.06-14.01 c0.14-1.31,0.18-2.64,0.22-3.96c0.23-7.54,2.59-14.4,6.59-20.73c0.68-1.08,1.45-2.09,2.38-2.97c0.36-0.35,0.74-0.63,1.23-0.76 c3.28-0.88,7.06,1.32,7.84,4.59c0.14,0.6,0.28,1.16,1.01,1.27c0.68,0.1,1.1-0.31,1.45-0.8c0.85-1.17,1.07-2.5,0.93-3.91 c-0.25-2.42-1.25-4.52-2.77-6.38c-1.38-1.7-3.19-2.53-5.42-2.43c-0.47,0.02-0.96,0.19-1.45-0.11c0.09-0.14,0.14-0.28,0.23-0.37 c2.21-1.98,4.77-3.35,7.72-3.61c3.52-0.31,6.83,0.48,9.54,2.94c2.6,2.36,2.74,3.22,1.11,6.33c-0.5,0.95-1.02,1.9-1.35,2.93 c-0.33,1.02-0.37,2.03,0.14,3c0.77,1.46,2.49,1.62,3.48,0.31c0.59-0.78,0.96-1.69,1.31-2.61c0.95-2.51,0.88-5.06,0.56-7.67 c-0.3-2.4-1.08-4.56-2.51-6.49c-2.03-2.73-4.65-4.48-8.16-3.93c-5.76,0.9-11.1,2.82-15.12,7.38c-0.27,0.3-0.48,0.74-1.07,0.76 c0.03-0.8,0.1-1.58,0.07-2.34c-0.13-2.67-1.24-4.8-3.61-6.17c-0.8-0.46-1.67-0.69-2.47-0.05c-0.8,0.64-0.58,1.47-0.32,2.3 c0.12,0.37,0.19,0.76,0.3,1.13c0.87,2.85,0.73,5.7,0.03,8.56c-0.83,3.38-1.76,6.72-3.42,9.81c-0.41,0.77-0.72,1.61-1.03,2.43 c-3.29,8.68-4.45,17.72-4.31,26.95c0.11,7,1.38,13.82,3.46,20.49c2.82,9.04,4.85,18.25,6.15,27.63c0.67,4.82,0.54,9.58-1.14,14.2 c-1.63,4.49-3.82,8.69-6.76,12.46c-1.65,2.12-3.36,4.19-4.74,6.52c-0.91,1.53-1.12,2.85,0.15,4.24c0.84,0.17,1.55-0.2,2.15-0.69 c2.41-1.93,5.29-2.68,8.2-3.39c1.56-0.38,3.07-0.4,4.63,0c2.18,0.56,4.36,1.13,6.52,1.76c2.94,0.87,5.64,2.22,8.2,3.88 c2.93,1.9,5.59,4.13,8.02,6.63c1.33,1.37,2.63,2.78,3.43,4.55c0.19,0.41,0.44,0.8,0.88,0.94c0.58,0.19,0.8,0.67,1.09,1.12 c1.61,2.54,2.76,5.28,3.75,8.1c0.24,0.69,0.42,1.43,0.93,2.1c0.41-0.66,0.41-1.25,0.31-1.83c-0.43-2.55-0.71-5.15-1.59-7.6 c-1.05-2.9-2.1-5.79-3.4-8.59c-5.54-11.91-14.87-18.72-27.8-20.69c-0.77-0.12-1.54-0.16-2.61-0.26 C18.81,122.39,19.14,121.8,19.5,121.23z M253.51,344.46c-2.11-0.4-4.25-0.27-6.26,0.32c-3.31,0.96-6.69,1.44-10.08,1.91 c-1.93,0.26-3.83,0.67-5.82,1.09c0.64-0.69,1.28-1.39,1.94-2.07c1.95-2,3.94-3.95,6.32-5.45c2.13-1.35,4.48-1.93,6.97-1.98 c1.66-0.03,2.15,0.34,2.7,1.88c0.47,0.11,0.69-0.29,0.98-0.5c1.03-0.76,2.11-1.42,3.29-1.91c2.12-0.89,4.25-1.03,6.44-0.26 c2.41,0.85,4.89,0.92,7.4,0.59c2.37-0.31,4.34-1.45,6.04-3.09c0.61-0.59,0.99-1.33,1.3-2.11c0.22-0.54,0.6-0.96,1.22-0.85 c0.65,0.11,0.98,0.63,1.04,1.26c0.13,1.27-0.26,2.42-0.89,3.49c-1.92,3.24-4.64,5.65-7.87,7.52c-0.55,0.32-1.1,0.64-1.64,0.96 c-0.03,0.02-0.02,0.09-0.03,0.16c0.08,0.33,0.41,0.36,0.66,0.45c4.33,1.57,8.68,3.07,13.17,4.11c3.65,0.84,7.34,1.21,11.08,0.86 c3.77-0.35,7.16-1.58,9.84-4.36c4.11-4.26,4.69-10.86,1.42-15.69c-0.43-0.64-0.96-1.02-1.69-1.3c-2.6-1-5.07-0.87-7.45,0.62 c-0.54,0.34-1.12,0.61-1.7,0.85c-1.28,0.54-2.53,0.45-3.55-0.55c-1.05-1.03-0.93-2.3-0.41-3.55c1-2.4,3.68-3.75,6.56-3.33 c2.56,0.37,4.7,1.59,6.65,3.22c5.89,4.94,6.78,13.25,2.15,19.39c-2.11,2.79-4.9,4.46-8.17,5.4c-4.48,1.29-9.05,1.58-13.68,1.1 c-3.72-0.38-7.34-1.21-10.87-2.43c-2.91-1-5.79-2.11-8.7-3.15c-0.62-0.22-1.26-0.56-1.98-0.25c0.35,0.72,1.02,0.98,1.6,1.31 c1.68,0.94,2.66,2.42,3.36,4.13c0.7,1.69,0.92,3.5,1.2,5.28c0.01,0.1,0.02,0.2,0.01,0.29c-0.02,0.67-0.19,1.27-0.86,1.58 c-0.72,0.34-1.39,0.14-1.88-0.4c-0.76-0.83-1.46-1.71-2.13-2.62c-2.49-3.36-5.59-5.88-9.67-7.04c-3.35-0.95-6.76-0.99-10.19-0.42 c-5.85,0.97-11.13,3.34-16.04,6.59c-1.83,1.22-3.59,2.55-5.38,3.83c-0.6,0.43-1.09,0.97-1.49,1.6c-2.04,3.14-4.56,5.87-7.33,8.37 c-1.02,0.92-2.17,1.68-3.42,2.25c-0.43,0.2-0.87,0.49-1.41,0.2c-0.08-0.87,0.62-1.28,1.12-1.76c3.35-3.27,6.13-6.99,8.67-10.89 c4.68-7.21,7.17-15.18,7.84-23.73c0.32-4.05,0.58-8.11,1.05-12.14c0.33-2.83,0.9-5.6,1.81-8.3c1.22-3.64,3.19-6.81,5.9-9.52 c1.59-1.59,3.14-3.23,5.09-4.41c0.59-0.35,1.08-0.87,1.95-0.58c0.46,0.15,0.97-0.38,1.42-0.67c2.42-1.56,5.1-1.89,7.9-1.69 c0.97,0.07,1.95,0.22,2.85,0.94c0.08-1.3-0.08-2.48-0.34-3.64c-0.34-1.51-0.2-3.02-0.05-4.53c0.07-0.68,0.32-1.27,1.04-1.44 c0.73-0.17,1.23,0.25,1.56,0.84c1.32,2.39,3.3,4.23,5.13,6.2c2.03,2.18,2.15,4.88,0.44,7.37c-0.92,1.34-2.15,2.41-3.08,3.74 c-0.73,1.05-1.4,2.12-1.88,3.31c-0.47,1.18-0.98,2.35-1.67,3.42c-1.09,1.71-1.34,3.64-1.39,5.88c-0.44-1.15-0.3-2.09-0.4-3 c-0.11-0.96-0.35-1.9-0.54-2.9c-1.22,1.23-1.42,2.82-1.15,8.89c-0.73-0.25-1.09-0.83-1.41-1.39c-0.96-1.67-1.33-3.45-0.87-5.37 c0.76-3.16,1.9-6.18,3.43-9.03c1.29-2.4,1.57-4.89,1.32-7.69c-1.18,0.8-2.49,0.86-3.71,1.22c-2.67,0.8-4.79,2.36-6.19,4.78 c0.21,0.5,0.62,0.28,0.91,0.38c1.08,0.39,1.24,1.23,0.34,1.98c-0.3,0.25-0.66,0.42-1,0.6c-2.12,1.17-3.33,2.98-3.71,5.34 c-0.2,1.26-0.33,2.54-0.15,3.81c0.39,2.67-0.28,5.04-1.84,7.2c-0.14,0.2-0.26,0.41-0.39,0.62c-0.01,0.02,0.03,0.08,0.07,0.16 c0.4,0.26,0.82,0.01,1.23-0.07c2.04-0.39,3.58,0.47,4.27,2.41c0.84,2.35-0.23,5.57-2.44,7.36c-1.07,0.87-2.27,1.54-3.5,2.15 c-4.28,2.13-6.69,4.26-9.91,8.79c-0.29-0.3-0.09-0.62-0.08-0.9c0.04-0.68,0.17-1.37,0.15-2.05c-0.15-4.45,1.23-8.48,3.28-12.34 c0.65-1.22,1.19-2.46,1.58-3.78c0.27-0.9,0.42-1.81,0.25-2.75c0.03-0.17,0.07-0.44-0.1-0.47c-0.27-0.04-0.32,0.24-0.37,0.46 c-1.88,3.87-3.81,7.72-4.51,12.04c-0.36,2.22-0.9,4.4-1.63,6.54c-1.01,2.97-1.57,6.07-2.01,9.17c-0.2,1.4-0.96,2.54-1.3,3.86 c0.39,0.31,0.54-0.08,0.73-0.22c2.62-1.87,5.2-3.8,7.86-5.63c2.63-1.8,5.57-2.82,8.74-3.18c2.19-0.25,4.39-0.3,6.6-0.36 c2.17-0.05,4.28-0.48,6.37-1.02c0.7-0.18,1.4-0.45,1.99-0.91c0.22,0.02,0.44-0.08,0.44-0.27 C253.93,344.32,253.67,344.46,253.51,344.46z M250.48,314.24c0.07,0.02,0.14,0.04,0.21,0.06c0-0.05,0.02-0.12,0-0.13 c-0.06-0.04-0.14-0.05-0.2-0.07C250.48,314.13,250.48,314.18,250.48,314.24z M65.57,186.45c1-0.79,2-1.56,2.98-2.37 c2.3-1.89,4.14-4.13,5.48-6.8c0.61-1.22,1.29-2.42,2.02-3.57c1.25-1.94,3.01-3.17,5.32-3.56c1.04-0.17,2.04-0.07,3.01,0.35 c1.62,0.7,2.43,2.16,2.14,3.9c-0.08,0.47-0.29,0.93-0.17,1.51c0.5-0.03,0.82-0.32,1.16-0.56c1.96-1.38,4.11-2,6.52-1.67 c1.22,0.17,2.44,0.06,3.66-0.06c2.69-0.27,4.66-1.62,5.94-3.98c0.07-0.13,0.15-0.25,0.22-0.38c0.3-0.61,0.72-1.11,1.46-0.96 c0.7,0.14,0.81,0.76,0.86,1.37c0.01,0.14,0,0.3,0.31,0.41c2.59-1.53,4.26-3.79,4.96-6.8c0.24-1.03,0.28-2.14,1.19-3.08 c-2.73-0.29-5.22-0.08-7.6,1.19c-2.94,1.57-6.04,2.76-9.29,3.54c-1.86,0.45-3.59,0.06-5.23-0.84c-0.6-0.33-1.1-0.76-1.56-1.45 c3.13,0.07,6.13,0.58,8.94-0.83c0.24,0,0.5-0.07,0.46-0.33c-0.02-0.16-0.29-0.1-0.46-0.07c-1.88-0.23-3.76-0.46-5.76-0.7 c0.53-0.27,0.98-0.28,1.4-0.23c1.6,0.18,2.93-0.53,4.24-1.26c1.07-0.59,2.15-1.17,3.29-1.61c1.9-0.74,3.55-1.84,5.05-3.2 c0.91-0.82,1.83-1.63,2.89-2.26c2.11-1.26,4.7-1.03,6.53,0.62c1.09,0.98,2.16,1.99,3.2,3.02c0.53,0.52,1.13,0.94,1.74,1.34 c0.53,0.35,1.07,0.68,1.6,1.04c0.52,0.35,0.86,0.81,0.73,1.48c-0.13,0.69-0.66,0.95-1.27,1.03c-1.51,0.18-3.02,0.36-4.53,0.01 c-1.19-0.28-2.41-0.32-3.65-0.44c1.28,3.3,1.09,6.46-0.26,9.58c-0.29,0.67-0.73,1.27-1.05,1.93c-0.19,0.39-0.7,0.76-0.19,1.31 c0.14,0.15-0.09,0.45-0.22,0.66c-0.35,0.53-0.64,1.1-1.04,1.6c-3.9,4.86-8.42,8.85-14.62,10.54c-2.56,0.7-5.14,1.22-7.78,1.46 c-3.41,0.31-6.83,0.62-10.24,0.87c-8.64,0.61-16.78,2.85-24.15,7.49c-4.11,2.59-8,5.46-11.4,8.96c-0.91,0.94-0.93,0.93-1.92,1.32 c-0.42-0.54-0.07-1.02,0.14-1.48c0.7-1.53,1.69-2.87,2.83-4.09c2.28-2.44,4.75-4.67,7.56-6.48c1.32-0.85,2.13-2.13,3.04-3.34 c2.33-3.1,4.44-6.33,6.07-9.85c2.13-4.58,3.49-9.34,3.47-14.44c-0.01-3.29-0.73-6.38-2.32-9.3c-1.33-2.44-3.31-4.22-5.4-5.92 c-0.68-0.56-1.4-1.07-2.09-1.62c-0.39-0.3-0.75-0.63-0.98-1.08c-0.47-0.96-0.04-1.92,0.99-2.18c0.19-0.05,0.39-0.08,0.58-0.06 c2.78,0.34,5.53,0.76,7.89,2.49c0.9,0.66,1.45,1.58,2.04,2.48c0.28,0.43,0.48,0.94,1.08,1.17c0.26-0.77-0.07-1.39-0.29-2.02 c-1.04-2.9-2.18-5.77-3.15-8.7c-1.98-5.95-3.08-12.04-2.44-18.35c0.29-2.88,0.8-5.72,1.95-8.4c2.83-6.59,9.79-10.11,16.75-8.39 c3.1,0.76,5.57,2.56,7.55,5.05c1.43,1.79,2.51,3.75,2.85,6.04c0.33,2.19-0.08,4.19-1.75,5.8c-0.61,0.59-1.35,0.98-2.16,1.2 c-2.39,0.66-4.25-1.13-3.7-3.55c0.2-0.87,0.62-1.66,1.09-2.4c1.61-2.5,1.52-5.07,0.48-7.72c-0.19-0.47-0.45-0.83-0.87-1.13 c-3.25-2.26-6.74-2.98-10.59-1.81c-5.12,1.56-8.14,5.03-9.34,10.16c-0.85,3.63-0.68,7.29-0.12,10.95c0.54,3.54,1.58,6.97,2.7,10.36 c0.61,1.86,1.26,3.71,1.92,5.55c0.11,0.3,0.12,0.67,0.51,0.86c0.48-0.31,0.59-0.88,0.84-1.33c1.81-3.27,4.16-6.03,7.33-8.06 c0.83-0.53,1.72-0.95,2.7-1.11c0.38-0.06,0.78-0.09,1.17-0.06c0.63,0.04,1.17,0.32,1.33,0.96c0.19,0.72-0.33,1.13-0.89,1.33 c-1.73,0.62-2.79,1.94-3.71,3.41c-0.74,1.17-1.23,2.45-1.42,3.83c-0.32,2.35-0.39,4.73,0.44,6.97c1.28,3.48,0.46,6.53-1.48,9.45 c-0.37,0.56-0.78,1.09-1.19,1.65c1.73,0.72,2.05,1.21,2,3.02c-0.08,3.04-1.06,5.75-2.91,8.15c-1.94,2.52-4.2,4.74-6.54,6.88 c-0.38-0.29-0.1-0.56-0.03-0.81c0.69-2.26,1.08-4.58,1.34-6.91c0.28-2.49,0.72-4.93,1.44-7.33c0.55-1.84,0.74-3.74,0.66-5.66 c-0.02-0.47,0.05-0.99-0.32-1.48c-0.55,0.13-0.64,0.66-0.79,1.06c-0.88,2.36-1.27,4.82-1.36,7.33c-0.09,2.25-0.13,4.5-0.38,6.74 c-0.47,4.23-2.38,7.8-4.89,11.13c-1.35,1.79-2.67,3.6-4,5.41c-0.11,0.15-0.21,0.32-0.13,0.53c0.09,0.01,0.21,0.07,0.28,0.03 c2.3-1.21,4.87-1.39,7.36-1.85c2.95-0.54,5.76-1.53,8.63-2.35c0.18-0.05,0.38-0.14,0.3-0.55c-2.31-0.09-4.67,0.04-7.02,0.29 L65.57,186.45z M88.13,181.26c-0.81-0.44-1.44-0.33-2.05-0.24c-1.55,0.24-3.03,0.76-4.4,1.52c-2.36,1.31-4.83,2.32-7.43,3.01 c-0.34,0.09-0.79,0.05-1.02,0.72C78.68,185.94,83.3,183.59,88.13,181.26z M72.32,186.39c0.49,0.11,0.9,0.25,1.21-0.39 C73.04,185.89,72.62,185.74,72.32,186.39z M67.49,158.66c0.06,0,0.1,0,0.15,0c-0.02-0.07-0.04-0.14-0.07-0.2 c-0.01-0.02-0.09,0-0.13,0C67.45,158.52,67.47,158.59,67.49,158.66z M201.33,319.32c0.06,0.43,0.16,0.87,0.27,1.29 c0.31,1.19,0.75,2.33,1.23,3.45c1.35,3.15,3,6.15,4.64,9.16c2.19,4.03,3.91,8.21,4.33,12.84c0.01,0.14,0.08,0.28,0.14,0.49 c0.44-0.77,0.59-1.59,0.77-2.38c0.87-3.83,1.23-7.72,1.36-11.65c0.14-4.22-0.6-8.27-2.07-12.22c-1.16-3.13-1.85-6.38-2.22-9.7 c-0.49-4.37-1.45-8.58-4.09-12.24c-0.52-0.73-0.99-1.53-1.32-2.59c1.25,0.57,1.86,1.51,2.56,2.35c3.39,4.08,5.25,8.65,4.79,14.05 c-0.27,3.17,0.42,6.22,1.4,9.23c1.26,3.87,2.23,7.8,2.5,11.89c0.28,4.1-0.12,8.11-1.11,12.08c-0.43,1.72-1.14,3.33-2.12,4.81 c-0.24,0.36-0.55,0.71-0.61,1.16c-0.22,1.67-1.17,2.99-2.08,4.32c-3.52,5.12-7.89,9.46-12.51,13.57c-1.4,1.24-2.99,2.2-4.66,3.03 c-0.96,0.48-1.91,0.99-2.85,1.51c-0.35,0.19-0.66,0.45-0.44,1c0.71,0.37,1.49,0.17,2.24,0.03c2.4-0.44,4.56-1.46,6.54-2.86 c5.37-3.8,9.73-8.61,13.63-13.86c3.09-4.16,4.94-8.9,6.17-13.86c3.61-14.5,3.07-28.71-3.32-42.44c-1.98-4.25-4.61-8.1-8.04-11.29 c-2.68-2.49-5.62-4.71-8.4-7.1c-2.89-2.49-6.01-4.71-9.01-7.06c-1.62-1.27-3.28-2.48-5-3.6c-0.48-0.31-1.04-0.86-1.52-0.21 c-0.47,0.62,0.2,1.05,0.59,1.46c0.51,0.53,1.08,1,1.71,1.38c2,1.2,3.36,2.96,4.36,5.02c0.49,1.01,0.98,2.02,1.47,3.04 c0.65,1.37,1.37,2.71,2.33,3.89c1.17,1.44,2.39,2.85,3.58,4.27c0.76,0.9,1.51,1.8,2.26,2.7c-0.64-0.16-1.11-0.49-1.57-0.83 c-1.45-1.09-2.98-2.05-4.57-2.92c-0.61-0.33-1.25-0.58-1.95-0.54c-0.4,0.02-0.78,0.13-0.94,0.57c-0.13,0.37,0.01,0.67,0.25,0.94 c0.49,0.54,0.96,1.11,1.5,1.61c1.21,1.13,2.02,2.5,2.6,4.03c0.47,1.24,0.81,2.51,1.03,3.82c0.73,4.24,2.66,7.84,5.74,10.84 c0.98,0.95,1.94,1.93,2.99,2.99C201.88,315.72,201.05,317.23,201.33,319.32z M120.92,215.9c2.77,2.42,5.58,4.76,9.05,6.17 c2.99,1.22,5.65,2.93,7.28,5.88c0.25,0.46,0.69,0.83,1.07,1.21c0.38,0.38,0.81,0.88,1.37,0.4c0.48-0.41,0.12-0.89-0.14-1.31 c-0.21-0.33-0.42-0.66-0.64-0.98c-3.05-4.32-6.38-8.43-9.63-12.59c-2.08-2.66-4.48-5.05-6.51-7.76c-0.7-0.94-1.5-1.8-2.39-2.59 c-7.02-6.21-15.28-9.77-24.45-11.3c-3.67-0.62-7.4-0.83-11.12-0.89c-5.37-0.09-10.66,0.52-15.85,1.87 c-4.51,1.18-8.95,2.57-12.9,5.15c-5.62,3.66-10.54,8.12-14.72,13.37c-1.38,1.73-2.54,3.6-3.32,5.68c-0.44,1.2-0.79,2.42-0.83,3.71 c-0.01,0.42-0.1,0.91,0.54,1.08c0.83-0.44,1.12-1.31,1.48-2.09c1.32-2.82,3.02-5.35,5.16-7.63c2.65-2.82,5.48-5.45,8.34-8.05 c3.55-3.23,7.95-4.89,12.12-6.97c0.65-0.32,1.38-0.5,2.09-0.67c4.07-1,8.19-1.36,12.38-1.04c3.94,0.3,7.72,1.26,11.45,2.47 c3.15,1.02,6.35,1.62,9.67,1.4c0.49-0.03,0.98-0.02,1.47-0.01c3.25,0.04,6.31,0.71,9.02,2.62c0.76,0.54,1.56,1.01,2.3,1.57 c1.16,0.87,2.41,1.66,3.22,3.17c-1.27-0.4-2.22-1.06-3.2-1.66c-1.08-0.66-2.13-1.37-3.34-1.83c-2.67-1.03-5.44-1.62-8.27-1.92 c-3.33-0.35-6.58-1.03-9.71-2.2c-4.09-1.53-8.28-2.26-12.66-2.09c-3.83,0.15-7.62,0.51-11.35,1.37c-0.71,0.16-1.45,0.28-2.23,0.75 c7.45,1.51,8.43,1.86,14.73,5.27c1.59,0.86,3.19,1.72,4.81,2.51c2.2,1.08,4.41,2.13,6.81,2.68c2.6,0.59,4.12-0.08,5.36-2.42 c1.05,1.05,2.09,2.07,3.11,3.11c1.73,1.77,3.73,3.16,5.98,4.18c1.66,0.76,3.43,1.15,5.21,1.5c2.99,0.58,5.75,1.62,7.82,4 c0.29,0.33,0.65,0.59,0.98,0.88c0.33,0.29,0.67,0.63,1.16,0.35c0.49-0.29,0.56-0.77,0.49-1.29c-0.1-0.85-0.52-1.57-0.93-2.3 c-1.05-1.87-2.34-3.59-3.4-5.49C118.85,214.11,119.89,215,120.92,215.9z M188.4,228.2c0.56,1.18,0.61,2.2,0.4,3.23 c-0.19,0.91-0.4,1.82-0.73,2.69c-1,2.63-0.76,5.2,0.35,7.71c0.62,1.39,1.46,2.65,2.43,3.83c0.7,0.85,1.67,1.34,2.59,1.89 c1.42,0.86,1.42,2.09,0.03,2.97c-0.81,0.51-1.72,0.68-2.67,0.67c-3.93-0.07-7.93-1.99-8.63-7.68c-0.08-0.63-0.15-1.26-0.24-1.89 c-0.01-0.08-0.13-0.14-0.2-0.21c-0.09,0.04-0.2,0.05-0.24,0.11c-2.08,3.34-5.34,5.04-8.84,6.45c-2.45,0.99-5.04,1.6-7.46,2.66 c-1.09,0.48-2.3,0.46-3.44,0.72c-0.63,0.15-1.05-0.3-0.95-0.94c0.18-1.11,0.34-2.24,0.69-3.3c0.95-2.83,1.98-5.62,3.02-8.42 c0.74-1.99,1.88-3.77,3.14-5.45c0.88-1.18,2.05-2.08,3.54-2.77c-0.45-0.4-0.9-0.33-1.28-0.36c-1.22-0.09-2.42-0.31-3.6-0.68 c-4.5-1.41-5.81-6.48-5.19-9.45c0.15-0.73,0.47-1.4,1.04-1.9c0.76-0.65,1.52-0.58,2.17,0.19c0.12,0.15,0.22,0.32,0.32,0.49 c1.91,3.52,5.1,5.13,8.84,5.88c1.48,0.29,2.93-0.02,4.33-0.5c0.97-0.34,1.95-0.64,2.97-0.81c1.01-0.16,1.99-0.14,2.97,0.33 c-0.23,0.35-0.5,0.3-0.72,0.32c-2.57,0.23-4.36,1.67-5.65,3.76c-1.01,1.62-2.16,3.15-3.16,4.76c-0.52,0.84-1.22,1.51-1.99,2.13 c-1.63,1.33-2.65,3.05-3.26,4.98c0.3,0.26,0.39,0.09,0.45,0.01c1.12-1.43,2.37-2.72,3.82-3.83c1.03-0.79,1.68-1.9,2.19-3.08 c0.33-0.76,0.64-1.53,1.09-2.24c1.98-3.14,5.24-4.59,9.05-3.98c0.83,2.94-0.66,7.03-3.17,8.67c-0.82,0.54-1.65,1.05-2.57,1.39 c-1.46,0.53-2.7,1.39-3.67,2.6c-0.96,1.19-2.03,2.25-3.2,3.22c-0.17,0.14-0.41,0.26-0.35,0.66c1.44-0.14,2.45-1.09,3.57-1.81 c0.24-0.16,0.48-0.36,0.66-0.58c1.93-2.51,4.65-4.01,7.25-5.65c2.33-1.47,3.92-3.36,4.13-6.21 C188.22,228.66,188.29,228.53,188.4,228.2z M181.77,241.37c0.04-0.01,0.1-0.01,0.11-0.03c0.02-0.04,0.02-0.13,0.01-0.14 c-0.13-0.05-0.2-0.02-0.18,0.09C181.7,241.32,181.74,241.34,181.77,241.37z M251.6,366.57c7.17,2.4,13.17,6.4,17.39,12.8 c1.49,2.25,2.76,4.63,3.28,7.32c0.97,5.07-0.29,9.51-3.49,13.59c-4.96,6.34-15.95,6.06-19.77-1.63c-0.72-1.44-0.87-2.9-0.37-4.4 c0.42-1.27,1.32-1.65,2.53-1.11c0.45,0.2,0.85,0.48,1.28,0.71c1.94,1.03,3.87,2.12,6.1,2.42c1.59,0.22,3.13,0.12,4.56-0.67 c1.18-0.65,2.04-1.59,2.18-2.95c0.16-1.54-0.06-3.1-1.06-4.32c-2.26-2.77-5.11-4.53-8.83-4.51c-2.35,0.01-4.57,0.6-6.6,1.75 c-5.49,3.09-6.73,10.27-2.77,15.11c3.23,3.95,7.69,6.16,12.98,6.14c3.91-0.02,7.32-1.45,10.01-4.23c6.3-6.5,6.69-14.4,3.43-21.12 c-3.44-7.07-8.77-12.45-15.77-15.85c-12.38-6.01-24.63-5.15-36.51,1.68c-1.15,0.66-2.16,1.52-3.05,2.51c-0.43,0.48-0.8,1-0.99,1.61 c-0.15,0.48-0.24,1,0.25,1.33c0.45,0.3,0.82-0.03,1.18-0.3c1.52-1.16,3.2-2.07,4.86-3.02c6.16-3.54,12.78-4.99,19.86-4.7 c2.61,0.11,4.63,1.17,6.3,2.99c1.75,1.9,2.61,4.12,1.71,6.75c-0.64,1.88-1.9,3.28-3.45,4.45c-2.28,1.72-4.82,2.05-7.51,1.26 c-1.49-0.44-2.41-1.44-2.55-3.05c-0.03-0.34-0.04-0.69-0.1-1.02c-0.12-0.68-0.47-1.18-1.18-1.34c-0.52-0.11-0.98,0.05-1.29,0.49 c-0.42,0.59-0.37,1.2,0.02,1.78c0.41,0.61,0.87,1.18,1.26,1.8c0.71,1.14,1.75,1.86,2.99,2.24c4.48,1.37,8.38,0.51,11.64-3 c2.24-2.41,2.86-6.56,0.92-9.36c-0.63-0.91-1.42-1.69-2.11-2.75C249.98,365.93,250.79,366.3,251.6,366.57z M44.8,162.1 c-4.09-3.52-8.9-2.49-11.91,1.16c-2.37,2.87-2.85,6.09-2.06,9.66c0.59,2.65,2.57,3.94,4.63,5.18c0.7,0.42,1.55,0.02,1.85-0.67 c0.32-0.74-0.08-1.58-0.93-1.86c-0.36-0.12-0.77-0.12-1.16-0.16c-1.9-0.22-2.89-1.08-3.37-2.95c-0.26-1-0.34-2.02-0.23-3.06 c0.35-3.33,2.34-5.53,5.07-7.12c1.28-0.75,2.78-0.99,4.27-0.64c3.26,0.77,6.25,4.66,6.41,7.46c0.42,7.4-0.99,14.31-4.71,20.74 c-0.96,1.65-1.84,3.35-3.05,4.84c-0.25,0.3-0.47,0.68-0.23,1.08c0.28,0.46,0.75,0.42,1.18,0.31c0.88-0.23,1.58-0.77,2.2-1.4 c1.03-1.06,1.88-2.26,2.6-3.54c3.11-5.56,4.92-11.48,5.03-17.9c0.24-14.46-5.92-25.44-18.29-32.73c-7.05-4.15-14.2-3.91-20.87,1.22 c-4.38,3.37-6.34,7.83-5.79,13.35c0.31,3.11,1.64,5.81,3.46,8.29c1.04,1.42,2.14,2.79,3.75,3.66c4.42,2.36,9.9,1.49,12.88-2.07 c4.22-5.05,3.64-12.48-1.39-16.74c-1.58-1.34-3.52-1.79-5.5-1.06c-1.93,0.71-2.56,2.44-2.82,4.31c-0.13,0.93-0.02,1.86,0.16,2.77 c0.22,1.11,0.6,2.17,1.12,3.18c0.58,1.13,1.21,2.24,1.78,3.37c0.77,1.53,0.37,2.4-1.28,2.87c-1.07,0.3-2.18,0.35-3.18-0.08 c-1.86-0.79-3.58-1.86-4.79-3.53c-2.86-3.96-3.11-9.49-0.45-13.57c3.36-5.17,10.55-8.67,18.27-5.98c3.17,1.11,6.05,2.83,8.52,5.09 c5,4.57,8.38,10.17,10.12,16.73c0.07,0.27,0.23,0.55-0.01,0.88C45.53,162.99,45.22,162.46,44.8,162.1z M44.25,107.75 c0.08-0.33,0.33-0.39,0.62-0.39c0.26-0.13,0.51-0.28,0.77-0.4c2.72-1.25,5.57-2.14,8.38-3.13c0.48-0.17,1.04-0.23,1.42-0.72 c-0.19-0.11-0.31-0.23-0.44-0.24c-2.2-0.16-4.36-0.62-6.54-0.9c-0.73-0.1-1.46,0.01-2.19,0.1c-1.33,0.17-2.6,0.6-4.18,1.03 c2.09-3.37,2.41-6.77,1.84-10.59c-1.94,2.75-3.38,5.54-5.46,7.9c0.76-3.06,2.41-5.7,3.94-8.5c-3.36,1.28-6.02,3.24-7.97,6.35 c-1.08-2.05-1.51-4.15-2.77-6.06c-0.42,1.22-0.77,2.25-1.13,3.27c-0.11-0.02-0.22-0.05-0.33-0.07c-0.35-1.92,0.14-3.79,0.54-5.68 c-3.28,3.57-4.2,7.78-3.61,12.41c1.18,0.22,1.16,0.22,1.28,1.31c0.17,1.43-0.07,2.83-0.23,4.24c-0.04,0.36-0.25,0.75,0.07,1.1 c0.35,0,0.51-0.28,0.72-0.46c1.25-1.06,2.7-1.75,4.21-2.34c0.42-0.16,0.88-0.34,1.24,0.04c0.43,0.46,0.12,0.92-0.13,1.34 c-0.22,0.38-0.49,0.73-0.73,1.09c-0.56,0.84-1.13,1.67-1.35,2.77c1.07,0.01,2.04,0.05,3.01,0.02c1.62-0.06,3.23-0.01,4.83,0.29 c1.16,0.22,1.36,0.84,0.57,1.73c-0.42,0.47-0.91,0.88-1.37,1.33c-0.73,0.7-1.52,1.35-2.02,2.23c0.65,0.65,1.22,1.25,1.83,1.82 c1.37,1.29,1.9,2.93,1.94,4.76c0.01,0.49-0.03,0.98-0.12,1.46c-0.17,0.82,0.1,1.37,0.75,1.9c1.77,1.41,3.69,2.57,5.7,3.6 c0.22,0.11,0.42,0.49,0.77,0.07c-1.05-2.1-2.2-4.16-3.58-6.1c2.24,1.31,3.84,3.26,5.5,5.42c0.19-1.73-0.28-3.08-0.88-4.42 c-0.61-1.37-1.77-2.35-2.62-3.59c1.68,0.39,3.31,0.26,5.01,0.18c-2.36-1.82-4.73-3.64-7.09-5.46c3.39,0.67,6.19,2.52,9.08,4.38 c-0.47-1.27-0.37-2.63-0.81-3.85c-0.61-1.66-1.42-3.23-3.1-4.13c-0.45-0.24-0.95-0.5-1.11-1.23c2.47-1.07,4.24-2.83,5.24-5.56 c-1.56,0.4-2.95,0.79-4.36,1.1c-1.48,0.33-2.97,0.6-4.5,0.62C44.66,107.87,44.45,107.93,44.25,107.75z M284.99,365.84 c-1.02-0.6-2.02-1.27-3.12-1.64c-0.27,0.28-0.16,0.46-0.07,0.63c0.91,1.79,1.96,3.49,3.13,5.13c0.76,1.06,1.59,1.49,2.95,1.28 c2.32-0.36,4.33,0.39,5.95,2.16c0.48,0.52,0.89,1.15,1.61,1.57c0.43-0.39,0.83-0.73,1.21-1.1c0.76-0.76,1.47-1.57,2.26-2.31 c0.88-0.82,1.47-0.62,1.7,0.56c0.31,1.59,0.36,3.2,0.3,4.83c-0.04,0.96,0.03,1.93,0.06,2.95c0.77-0.06,1.39-0.47,2.01-0.84 c0.67-0.39,1.29-0.89,1.95-1.3c0.37-0.23,0.81-0.44,1.21-0.03c0.32,0.33,0.23,0.72,0.08,1.1c-0.52,1.27-1.02,2.54-1.87,3.64 c-0.36,0.47-0.68,0.97-1.14,1.62c0.73-0.08,1.21-0.14,1.69-0.2c1.26-0.16,2.52-0.31,3.8-0.17c1.13,0.12,1.13,0.1,1.26,1.29 c4.72,0.59,8.99-0.34,12.65-3.63c-0.58-0.17-1.01,0.13-1.47,0.25c-1.34,0.35-2.7,0.46-4.08,0.4c-0.25-0.01-0.63,0.02-0.56-0.48 c1.11-0.26,2.21-0.56,3.42-1.15c-1.96-1.14-4-1.68-6.11-2.68c3.15-1.9,5.09-4.55,6.44-8.03c-3.05,1.78-5.89,3.36-9.04,4.28 c2.59-2.08,5.45-3.75,8.14-5.7c-3.56-0.55-6.97-0.42-9.98,1.71c-0.25-0.39-0.17-0.62-0.08-0.85c0.89-2.44,1.16-4.92,0.61-7.5 c-0.28-1.34-0.51-2.69-0.55-4.07c-0.01-0.31,0.02-0.69-0.52-0.82c-1.36,3.66-2.38,7.41-4.26,10.83c-0.19-3.14,0.76-6.07,1.57-9.15 c-0.95,0.29-1.61,0.77-2.32,1.17c-1.63,0.94-2.42,2.61-3.42,4.09c-0.67-0.31-0.94-0.83-1.23-1.34c-0.37-0.65-0.9-1.16-1.48-1.61 c-1.88-1.45-4.17-1.56-6.55-2.13c1.93,2.8,3.76,5.41,4.27,8.67c-1.72-2.2-3.43-4.39-5.15-6.59c-0.07,1.75-0.19,3.37,0.17,5.01 c-1.21-0.93-2.19-2.01-3.53-2.65c-1.75-0.84-2.97-1.08-4.3-0.74c2.08,1.54,3.99,3.2,5.51,5.58 C286.94,367.1,285.99,366.42,284.99,365.84z M192.1,211.9c-0.21-0.64,0-1.19,0.13-1.75c0.34-1.48,0.65-2.96,0.89-4.46 c0.58-3.71-0.54-6.87-3.09-9.53c-1.67-1.74-3.46-3.33-6.02-3.64c-0.98-0.12-1.7-0.68-2.09-1.63c-0.35-0.85-0.19-1.36,0.64-1.82 c0.57-0.32,1.2-0.43,1.84-0.41c1.81,0.04,3.45,0.54,4.92,1.65c0.99,0.75,1.81,1.69,2.94,2.62c-0.01-0.83-0.32-1.33-0.56-1.84 c-0.53-1.1-1.1-2.18-1.63-3.28c-0.75-1.55-1.24-3.18-1.57-4.87c-0.48-2.49-0.15-4.86,0.89-7.16c0.66-1.47,1.62-2.79,2.1-4.35 c0.12-0.39,0.35-0.75,0.82-0.71c0.5,0.04,0.55,0.46,0.59,0.87c0.3,2.69,1.38,5.08,2.79,7.34c1.3,2.07,2.55,4.17,3.64,6.36 c2.22,4.5,2.75,9.21,2,14.14c-0.72,4.72-2.78,8.82-5.54,12.63c-0.11,0.16-0.27,0.28-0.66,0.67c0.68-1.74,1.16-3.22,1.55-4.72 c0.4-1.52,0.77-3.04,0.85-4.61c0.08-1.6,0.08-3.19-0.38-4.77C195.21,202.97,194.57,207.78,192.1,211.9z M197.25,198.58 c-0.04-0.13-0.08-0.26-0.12-0.39c-0.08,0.04-0.22,0.07-0.22,0.11c0,0.13,0.04,0.27,0.07,0.41 C197.06,198.67,197.14,198.63,197.25,198.58z M213.71,215.1c0.01,0.34-0.31,0.2-0.49,0.26c-2.85,0.88-5.7,1.77-8.54,2.65 c-1.26,0.39-2.51,0.82-3.67,1.48c-0.3,0.18-0.65,0.34-0.86,0.8c2.13-0.42,4.09-0.84,6.06-1.2c3.62-0.66,6.8,0.28,9.49,2.76 c1.88,1.74,3.62,3.6,3.96,6.33c0.05,0.38,0.23,0.75,0.42,1.09c0.38,0.67,1.51,1.29,2.08,1.13c0.83-0.22,1.08-0.93,1.25-1.66 c0.07-0.28,0.1-0.58,0.1-0.87c-0.01-1.81-0.49-3.47-1.59-4.94c-0.75-1-1.68-1.85-2.61-2.94c0.74-0.08,1.2,0.2,1.66,0.42 c1.15,0.55,2.27,1.14,3.42,1.7c1.87,0.9,3.84,1.46,5.89,1.71c1.48,0.18,2.93,0.04,4.36-0.37c2.23-0.65,4.09-2.07,6.26-2.85 c0.32-0.11,0.61-0.38,0.55-0.78c-0.06-0.41-0.4-0.5-0.77-0.54c-2.9-0.29-5.44-1.52-7.86-3.06c-1.94-1.24-3.92-2.39-5.99-3.41 c-6.22-3.05-12.57-2.9-18.98-0.73c-1.57,0.53-3.09,1.23-4.49,2.15c-1.33,0.87-2.75,1.61-3.85,2.76c1.98-0.74,4.02-1.38,6.11-1.87 c2.51-0.58,5.03-0.71,7.58-0.28C213.39,214.9,213.7,214.77,213.71,215.1z M204.95,205.47c1.17-0.64,1.94-1.61,2.56-2.75 c1.15-2.12,2.06-4.32,2.56-6.69c0.29-1.4,0.69-2.76,1.59-3.9c1.24-1.57,4.97-2.79,7.14-2.32c-0.89,1.01-2.12,1.22-3.27,1.48 c-2.22,0.49-3.45,1.85-3.61,4.04c-0.18,2.44-0.72,4.73-2.01,6.82c-0.03,0.05,0.02,0.14,0.05,0.26c1.82-1.3,3.83-1.98,6.05-2.06 c0.49-0.02,0.97-0.1,1.45-0.2c1.74-0.37,2.87-1.37,3.31-3.13c0.2-0.8,0.46-1.6,0.72-2.39c0.16-0.48,0.36-0.95,1.02-1.19 c0.16,1.6-0.42,2.92-0.72,4.28c-0.37,1.62-1.41,2.75-2.91,3.48c-1.02,0.5-2.11,0.76-3.21,1.01c-2.36,0.52-4.55,1.49-6.64,2.68 c-0.77,0.44-1.46,1.01-1.95,1.75c-1.07,1.6-1.91,3.36-3.44,4.64c0.18,0.13,0.22,0.18,0.25,0.19c0.15,0.01,0.29,0.03,0.44,0.01 c3.07-0.27,4.76-2.3,5.96-4.82c0.92-1.93,0.97-2.04,3.06-1.37c1.35,0.43,2.69,0.51,4.04,0.06c1.69-0.57,3.01-1.67,3.99-3.11 c1.08-1.59,2.19-3.1,3.63-4.39c0.8-0.72,1.25-1.69,0.88-2.79c-0.7-2.07-0.42-4.06,0.34-6.02c0.34-0.87,0.17-1.74,0.16-2.6 c-0.01-0.41-0.3-0.69-0.88-0.71c-0.99-0.04-1.93,0.02-2.87,0.35c-1.74,0.62-3.51,0.86-5.32,0.23c-1.29-0.45-2.38,0.04-3.16,0.98 c-1.15,1.39-2.61,2.34-4.05,3.35c-3.32,2.32-4.18,4.85-3.04,8.76c0.37,1.27,0.13,1.85-1.08,2.27c-1.84,0.62-3.2,1.86-4.36,3.34 c-0.77,0.98-1.04,2.14-0.88,3.71C202.05,207.21,203.46,206.29,204.95,205.47z M90.56,123.62c-0.24,0.24-0.48,0.49-0.67,0.77 c-2.52,3.78-4.08,7.79-2.88,12.44c0.11,0.42,0.15,0.87,0.25,1.29c0.72,2.87,0.38,5.63-0.86,8.29c-0.55,1.2-1.15,2.37-1.73,3.56 c-1.24,2.53-1.65,5.2-1.24,7.99c0.1,0.67,0.21,1.33,0.77,2.06c0.14-2.22,0.37-4.24,0.81-6.22c0.45-2.04,1.17-3.97,2.62-5.56 c-0.53,2.73-0.79,5.46-0.99,8.23c0.77-1.43,1.74-2.65,2.93-3.67c2.29-1.96,3.54-4.5,4.13-7.41c0.17-0.87,0.37-1.72,0.82-2.49 c1.36-2.32,1.21-4.66,0.08-7c-0.4-0.83-0.85-1.65-1.3-2.46c-0.98-1.73-1.55-3.56-1.61-5.57c-0.05-1.6-0.32-3.19-0.09-5.12 C91.08,123.18,90.8,123.38,90.56,123.62z M255.44,325.64c2.85-0.23,5.67-0.66,8.76-1.21c-0.6,0.52-0.86,0.88-1.33,1.11 c-3.04,1.5-6.29,2.07-9.62,2.32c-0.3,0.02-0.63-0.06-0.99,0.21c0.71,0.45,1.38,0.57,2.06,0.66c2.69,0.37,5.26,0,7.71-1.19 c1.23-0.6,2.46-1.19,3.7-1.78c2.66-1.25,5.41-1.58,8.29-0.89c1.38,0.33,2.79,0.52,4.2,0.65c0.93,0.08,1.86,0.07,2.77-0.16 c2.59-0.66,4.96-1.78,7.12-3.34c0.46-0.33,0.97-0.68,0.99-1.44c-1.63,0.21-3.22-0.08-4.82-0.12c-2.01-0.06-3.85-0.62-5.57-1.62 c-1.06-0.61-2.11-1.25-3.26-1.66c-1.85-0.65-3.74-0.82-5.54,0.13c-1.14,0.6-2.33,0.97-3.58,1.23c-1.88,0.4-3.72,1.06-5.15,2.35 c-1.85,1.66-3.51,3.52-5.68,4.79L255.44,325.64z M255.84,322.65c0.45-0.01,0.73-0.23,0.98-0.54c0.57-0.73,1.2-1.42,1.68-2.21 c1.52-2.49,3.66-4.25,6.2-5.61c1.64-0.87,3.2-1.89,4.77-2.88c1.59-1,2.52-2.49,3.29-4.2c0.78-1.76,0.25-3.57,0.58-5.32 c0.05-0.28-0.13-0.57-0.45-0.68c-0.36-0.12-0.72-0.06-0.92,0.26c-0.85,1.41-2.35,1.86-3.69,2.52c-1.75,0.86-3.6,1.5-5.33,2.44 c-3.38,1.84-6.25,4.2-8.17,7.59c-1.17,2.06-1.99,4.25-2.14,6.65c-0.04,0.61-0.07,1.23,0.36,1.9c2.12-1.62,3.79-3.57,5.95-5.33 c-0.31,2.63-1.93,4.26-3.28,6.19C255.31,322.87,255.51,322.66,255.84,322.65z M91.82,159.48c3.8-0.4,6.99-2.12,9.74-4.69 c2.63-2.45,4.29-5.55,5.71-8.8c0.91-2.09,1.52-4.37,3.45-5.87c0.3-0.24,0.38-0.57,0.21-0.92c-0.17-0.35-0.55-0.51-0.87-0.41 c-0.88,0.3-1.74,0.07-2.61,0.02c-0.29-0.02-0.59,0.03-0.87,0.1c-2.65,0.6-4.8,1.91-6.21,4.3c-0.92,1.56-1.88,3.09-2.77,4.67 c-1.27,2.25-2.82,4.16-5.06,5.59c-1.25,0.79-2.79,1.5-3.18,3.23c-0.04,0.18-0.23,0.21-0.35,0.2c-0.11-0.01-0.24-0.15-0.29-0.26 c-0.09-0.2,0.04-0.45,0.21-0.46c0.91-0.02,1.28-0.81,1.89-1.25c1.17-0.85,2.42-1.53,4.11-1.69c-1.8,2.15-3.84,3.77-5.32,5.96 C90.37,159.63,91.1,159.56,91.82,159.48z M37.08,113.18c-1.37,0.1-2.73,0.24-4.1,0.18c-0.54-0.02-1.08-0.03-1.59-0.23 c-0.87-0.34-1.09-0.9-0.64-1.73c0.35-0.64,0.79-1.24,1.12-1.89c0.23-0.46,0.67-0.88,0.63-1.61c-1.35,0.83-2.53,1.61-3.76,2.3 c-1.15,0.63-1.62,0.29-1.56-1c0.04-0.72,0.27-1.46-0.11-2.44c-1.36,2.68-1.35,5.38-1.81,8.03c0.79-0.88,1.49-1.78,2.78-2.32 c-0.4,1.61-0.91,2.97-1.56,4.49c1.37-0.61,2.41-1.46,3.87-1.2c-0.81,1.13-1.9,1.8-2.78,2.9c0.98,0.03,1.76-0.01,2.52,0.08 c0.7,0.09,1.54-0.16,2.12,0.67c-0.87,0.23-1.65,0.43-2.74,0.71c1.75,0.56,3.18,1.02,4.6,1.49c1.82,0.6,3.36,1.55,4.3,3.31 c0.2,0.38,0.45,0.75,1.03,0.89c0.51-2.13,0.51-4.08-1.27-5.65c-0.59-0.52-1.2-1-1.77-1.54c-1.17-1.08-1.13-1.85,0.04-2.93 c0.81-0.75,1.57-1.56,2.51-2.5C38.14,113.19,37.61,113.14,37.08,113.18z M292.91,379.65c0.43,0.15,0.4,0.47,0.29,0.82 c0.39,1.31,0.18,2.69,0.37,4.33c0.91-1.26,1.79-2.16,2.96-3.2c0,1.64-0.62,2.75-1.39,4.1c1.65-0.67,3.01-1.16,4.51-1.59 c-0.42,1.32-1.56,1.94-2.62,3.06c2.97-0.77,5.77-0.65,8.35-2.11c-1.05-0.35-1.92-0.05-2.79-0.06c-0.8,0-1.1-0.37-0.83-1.11 c0.18-0.5,0.52-0.94,0.77-1.41c0.51-0.96,1.31-1.77,1.58-3.02c-1.11,0.62-2.1,1.16-3.06,1.73c-1.24,0.74-1.92,0.48-2.15-0.92 c-0.21-1.26-0.13-2.54-0.03-3.81c0.08-1.02,0.13-2.03,0.2-3.26c-1.05,0.77-1.79,1.55-2.44,2.38c-1.4,1.76-2.4,1.11-3.41-0.13 c-0.52-0.64-1.07-1.28-1.67-1.85c-1.32-1.24-3.41-1.48-5.13-0.65c0.03,0.33,0.28,0.52,0.53,0.65c2.18,1.11,3.22,3.04,3.87,5.27 c0.35,1.19,0.76,2.37,1.2,3.7c0.42-0.81,0.31-1.55,0.69-2.14C292.72,380.16,292.61,379.86,292.91,379.65z M188.65,219.31 c-1.04,1.09-0.97,3.03,0.15,4.11c1.14,1.1,3.02,1.11,4.1,0.01c1.08-1.1,0.96-2.33-0.37-3.65 C191.02,218.32,189.75,218.16,188.65,219.31z M202.51,209.81c2.13-0.48,2.95-2.23,3.91-3.9 C204.31,206.42,202.61,208.12,202.51,209.81z M52.09,222.43c0.13,0,0.14-0.02,0.04-0.06c0,0.03,0.01,0.07,0.01,0.1 C52.14,222.47,52.09,222.43,52.09,222.43z M255.49,325.68c-0.01-0.11,0.06-0.07,0.03-0.03c-0.12,0.15,0.11,0.03-0.08-0.01 C255.44,325.64,255.48,325.68,255.49,325.68z M65.57,186.45c0.01-0.01,0.02-0.01,0.03-0.01c-0.18,0.08,0.1,0.05-0.08-0.04 C65.53,186.4,65.57,186.45,65.57,186.45z M94.06,272.36c-1.32-5.78-8.73-11.36-16.36-9.62c-3.17,0.72-5.98,2.11-8.65,3.87 c-0.73,0.48-1.13,1.18-1.31,2.03c0.53,0.9,1.34,1.29,2.31,1.41c0.73,0.08,1.46,0.1,2.2,0.14c4.94,0.25,10.38,3.35,11.71,9.76 c0.21,1.01,0.72,1.68,1.52,2.21c0.45,0.3,0.89,0.6,1.37,0.86c1.72,0.92,3.01,2.3,4.23,3.79c2.12,2.59,2.44,5.46,1.57,8.57 c-0.44,1.56-1.13,3.02-1.76,4.51c-0.56,1.31-1,2.65-1.25,4.06c-0.64,3.66,0.79,6.49,3.48,8.83c0.54,0.47,1.15,0.84,1.91,0.84 c0.14-0.62-0.15-1.06-0.24-1.53c-0.64-3.69-0.08-7.02,2.83-9.67c0.58-0.53,1.12-1.09,1.64-1.68c1.32-1.48,2.33-3.15,2.82-5.08 c0.49-1.94-0.13-3.37-1.83-4.35c-0.28-0.16-0.66-0.19-0.81-0.56c0.12-0.4,0.45-0.63,0.73-0.9c1.29-1.28,2.08-2.83,2.5-4.58 c0.99-4.13,0.04-7.85-2.43-11.23c-0.41-0.55-0.85-1.07-1.42-1.48c-1.06-0.77-2.13-0.91-3.27-0.19c-0.37,0.23-0.75,0.44-1.1,0.65 C94.18,272.83,94.11,272.59,94.06,272.36z M139.33,317.33c1.4-2.24,1.18-3.48-0.87-5.15c-1.62-1.33-3.46-2.28-5.48-2.7 c-4.03-0.84-7.8-0.35-10.86,2.76c-0.2,0.2-0.37,0.46-0.78,0.46c-0.23-0.13-0.29-0.43-0.43-0.68c-1.01-1.81-2.42-2.43-4.42-1.94 c-0.72,0.18-1.39,0.46-2.05,0.77c-1.94,0.92-3.48,2.35-4.92,3.89c-1.43,1.54-3.18,2.39-5.22,2.73c-1.47,0.24-2.92,0.14-4.37-0.15 c-0.41-0.08-0.81-0.37-1.35-0.15c0.02,0.76,0.39,1.37,0.87,1.91c2.35,2.68,5.19,4.08,8.85,3.43c1.46-0.26,2.83-0.74,4.19-1.32 c1.53-0.65,3.04-1.37,4.65-1.78c2.57-0.65,5.06-0.52,7.32,1.01c0.85,0.57,1.61,1.28,2.4,1.93c1.31,1.09,2.07,2.58,2.95,3.99 c0.62,1,1.39,1.64,2.62,1.9c6.08,1.3,9.15,6.45,9.54,11.26c0.07,0.83,0.07,1.66,0.16,2.49c0.11,1.01,0.49,1.88,1.46,2.42 c0.82-0.24,1.52-0.64,2.01-1.37c1.36-2.04,2.54-4.17,3.31-6.51c2.35-7.15-0.49-13.27-5.53-16.84c-1.26-0.89-2.69-1.37-4.23-1.82 C139.22,317.6,139.25,317.45,139.33,317.33z M163.86,352.09c-0.3,1.93-0.54,3.87-1.05,5.76c-0.38,1.42-1.16,2.56-2.28,3.51 c-1.2,1.02-2.53,1.84-3.86,2.68c-1.73,1.09-3.13,2.49-4.13,4.29c-0.95,1.71-1.89,3.42-2.88,5.11c-1.68,2.87-3.84,5.23-7.2,6.08 c-4.17,1.05-8.31,2.31-12.65,2.49c-0.39,0.02-0.78,0.09-1.16,0.17c-0.3,0.06-0.54,0.23-0.57,0.58c-0.03,0.33,0.16,0.56,0.42,0.72 c0.47,0.3,1.02,0.34,1.55,0.39c2.55,0.27,5.1,0.26,7.6-0.28c10.63-2.28,19.18-7.66,25.02-17c3.24-5.18,5.47-10.7,5.89-16.87 c0.26-3.88-0.54-7.48-2.6-10.8c-1.02-1.65-2.25-3.18-2.91-5.07c-0.32-0.92-1.04-1.66-2.02-2.02c-0.5-0.18-0.99-0.12-1.32,0.34 c-0.29,0.4-0.27,0.86,0.06,1.22c1.57,1.73,1.75,3.92,1.87,6.05c0.21,3.78-0.46,7.37-3.41,10.08c-1.71,1.58-3.19,3.3-4.23,5.38 c-0.05,0.11-0.14,0.13-0.35,0.01c-0.54-0.85-1.11-1.8-2.24-2.25c-3.08-1.2-5.94,0.41-6.44,3.67c-0.26,1.71-0.12,3.42,0.13,5.12 c0.2,1.36,0.47,2.7,0.64,4.06c0.46,3.7,0.36,7.33-1.36,10.76c-0.05,0.11,0,0.28,0.01,0.5c2.26-0.82,3.91-2.25,5.06-4.27 c0.67-1.19,1.32-2.4,1.95-3.61c1.24-2.42,2.88-4.53,4.85-6.4c1.18-1.11,2.39-2.17,3.66-3.17c0.98-0.77,1.76-1.7,2.15-2.91 c0.48-1.47,1.01-2.93,1.15-4.49c0.02-0.24,0.04-0.48,0.4-0.65C163.95,351.51,163.91,351.81,163.86,352.09z M61.79,248.31 c0.04,0.3-0.23,0.32-0.47,0.3c-0.83,0.46-1.78,0.48-2.68,0.71c-0.94,0.25-1.91,0.45-2.83,0.75c-1.04,0.33-1.94,0.92-2.65,1.77 c-0.71,0.87-1.42,1.75-2.14,2.61c-2.04,2.41-4.36,4.48-7.16,5.98c-1.59,0.86-3.22,1.65-4.75,2.62c-1.76,1.12-3.08,2.66-3.71,4.73 c0.37,0.12,0.57-0.04,0.77-0.14c2.4-1.14,4.94-1.51,7.57-1.46c2.21,0.04,4.38,0.45,6.55,0.8c1.99,0.32,3.99,0.51,5.99,0.12 c1.91-0.38,3.2-1.69,3.5-3.49c0.35-2.11-0.33-3.73-2.03-4.8c-0.24-0.15-0.56-0.2-0.62-0.63c1-0.54,2.06-1.04,2.96-1.79 c0.94-0.79,1.75-1.71,2.61-2.57c1.16-1.15,2.45-2.11,4.05-2.55c4.18-1.15,8.28-1.42,12.1,1.17c0.36,0.24,0.74,0.26,1.1,0.02 c0.42-0.27,0.51-0.68,0.43-1.16c-0.08-0.46-0.34-0.81-0.64-1.14c-0.61-0.66-1.33-1.17-2.19-1.44c-0.85-0.27-1.59-0.7-2.31-1.24 c-4.32-3.22-9.13-4.56-14.51-3.73c-2.08,0.32-4.16,0.65-6.15,1.37c-10.65,3.85-18.82,10.47-23.4,21.05 c-1.92,4.44-3.23,9.03-3.04,13.94c0.04,1.03,0.08,2.06,0.34,3.06c0.11,0.43,0.31,0.89,0.84,0.88c0.55-0.01,0.68-0.48,0.73-0.93 c0.08-0.68,0.17-1.36,0.21-2.04c0.23-4.04,1.47-7.88,2.49-11.75c0.86-3.3,3.33-5.32,6.14-6.96c1.56-0.91,3.15-1.77,4.73-2.65 c1.74-0.97,3.19-2.25,4.26-3.94c0.76-1.2,1.56-2.37,2.38-3.53c0.92-1.31,2.1-2.33,3.67-2.79c2.4-0.69,4.87-1.01,7.36-1.2 C61.48,248.22,61.77,248.16,61.79,248.31z M144.53,270.06c-0.47,0.29-0.77,0.74-1.08,1.18c-1.1,1.5-2.25,2.96-3.49,4.33 c-0.9,1-1.91,1.88-3.01,2.68c1.4-2.97,3.65-5.38,5.49-8.47c-3.13,1.7-5.46,4.03-8.43,5.38c2.1-3,5.12-5.02,7.9-7.35 c-2.57,0.32-5.01,1.01-7.46,2.11c0.34-1.47,1.4-2.47,1.87-3.92c-3.4,1.71-5.69,4.57-8.62,6.62c0.4-1.34,1.08-2.5,2.01-3.51 c0.9-0.98,1.83-1.92,2.75-2.88c-2.18,0.47-4.2,1.13-5.88,2.55c-0.4,0.34-0.68,0.85-1.27,0.94c0.12,0.15,0.15-0.15,0.11,0.04 c-0.03,0.11-0.07,0.13-0.15,0.03c-0.12-0.15,0.03,0.11,0.08-0.08c-0.15-0.05-0.22-0.17-0.24-0.32c-0.15-1.76-0.57-3.43-1.62-4.55 c0.28,0.95,0.72,2.16,0.76,3.46c0.2,0.46,0.15,0.94,0.06,1.53c-0.51-0.48-0.49-1.04-0.54-1.57c-0.07-0.18-0.17-0.35-0.21-0.54 c-0.54-2.48-2.46-3.59-4.6-4.75c0.18,1.6,0.66,2.94,0.75,4.36c0.09,1.47-0.1,2.86-1.07,4.01c-1.41,1.67-2.09,3.69-2.87,5.66 c-0.13,0.33-0.32,0.68-0.15,1.06c0.09,0,0.15,0.01,0.18-0.01c2.54-1.78,5.58-1.98,8.47-2.66c0.35-0.08,0.71-0.1,0.93,0.22 c0.27,0.38,0.1,0.74-0.16,1.07c-0.36,0.47-0.71,0.93-1.05,1.42c-1.37,1.96-2.54,4.03-3.31,6.54c2.96-1.57,5.97-2.23,9.23-2.4 c-0.13,3.26-0.79,6.26-2.4,9.25c1.84-0.55,3.32-1.27,4.74-2.13c1.13-0.68,2.22-1.43,3.25-2.26c0.31-0.25,0.7-0.4,1.08-0.12 c0.31,0.24,0.28,0.6,0.19,0.95c-0.71,2.91-0.85,6.01-2.94,8.76c2.46-0.41,4.4-1.39,6.18-2.58c1.43-0.96,2.78-1.79,4.56-1.65 c0.88,0.07,1.75,0.2,2.61,0.39c0.6,0.13,1.2,0.35,2.01,0.3c-1.26-2.22-2.48-4.26-5.22-4.6c-0.45-0.06-0.97-0.01-1.18-0.66 c1.39,0.01,2.71,0.23,4.03,0.55c-1.26-1.12-2.89-1.19-4.63-1.48c2.15-2.17,3.35-4.63,3.95-7.39l0.05,0.05 c-0.77,0.46-1.29,1.19-1.93,1.78c-1.22,1.13-2.46,2.22-4.01,2.9c-0.28,0.12-0.54,0.41-0.86,0.14c2.17-2.87,5.05-5.15,6.75-8.6 c-1.42,0.53-2.41,1.48-3.91,1.92c1.13-2.64,1.87-5.14,2.24-7.75L144.53,270.06z M95.41,320.78c3.39,5.92,8.52,8.99,15.31,9.3 c3.53,0.16,6.89-0.74,10.18-1.9c2.21-0.78,4.47-1.01,6.79-0.82c0.32,0.03,0.68,0.2,0.98-0.14c-1.12-2.36-3.16-3.79-5.23-5.18 c-2.58-1.73-5.36-2.01-8.26-0.95c-1.1,0.4-2.17,0.89-3.24,1.37c-2.13,0.95-4.35,1.49-6.69,1.37c-2.6-0.13-5.03-0.78-7.06-2.5 c-1.59-1.35-2.54-2.98-1.88-5.17c0.02-0.06-0.07-0.16-0.11-0.24c-2.49,0.27-3.8-0.13-5.13-1.65c-1.01-1.15-1.74-2.46-2.17-3.95 c-0.98-3.39-0.69-6.67,0.72-9.88c0.53-1.21,1.08-2.41,1.51-3.66c0.62-1.79,0.84-3.64,0.19-5.47c-1.06-2.99-2.91-5.4-5.45-7.28 c-0.28-0.21-0.59-0.48-1.02-0.51c-0.04,0.21-0.1,0.35-0.09,0.48c0.32,2.78-0.09,5.45-1.03,8.08c-0.91,2.54-1.43,5.16-1.66,7.87 c-0.59,7.16,4.22,15.81,12.27,17.9C94.68,318.87,94.9,319.88,95.41,320.78z M127.14,283.72c-1.95,0.55-3.7,1.52-5.46,2.49 c-0.43,0.24-0.85,0.51-1.3,0.66c-0.67,0.22-1.11-0.16-0.95-0.82c0.62-2.61,1.16-5.26,2.67-7.56c0.25-0.39,0.69-0.73,0.59-1.29 c-3.05,0.44-4.59,1.15-6.9,3.19c-0.11,0.1-0.21,0.21-0.33,0.29c-0.28,0.21-0.6,0.36-0.95,0.2c-0.42-0.19-0.52-0.56-0.45-0.98 c0.24-1.39,0.3-2.82,0.81-4.17c0.1-0.28,0.44-0.58,0.03-0.93c-3.56,3.07-4.32,7.2-4.32,11.56c0,3.84,0.96,7.17,2.21,8.17 c1.11-4.99,1.6-6.12,3.18-7.23c-0.2,1.19-0.4,2.34-0.57,3.5c-0.16,1.11-0.61,2.22-0.1,3.42c1.94-1.83,3.69-3.73,6.48-4.56 c-0.94,1.58-2.02,2.72-3.06,3.88c1.19-1,2.16-2.23,3.81-3.12c-0.89,2.81-2.79,4.56-4.68,6.61c2.46,0.28,4.63-0.65,7.08-0.74 c-2.04,2.34-4.88,2.37-7.45,3.18c0.62,0.6,1.24,0.87,1.89,1.07c4.17,1.3,8.37,1.45,12.58,0.24c1.88-0.54,3.5-1.51,4.84-2.92 c0.21-0.22,0.55-0.4,0.41-0.87c-1.37,0.6-2.75,0.88-4.18,0.99c-0.6,0.05-1.34,0.47-1.71-0.31c-0.36-0.75,0.38-1.14,0.8-1.56 c1.85-1.87,2.4-4.27,3.02-7c-2.76,1.99-5.61,2.95-8.61,3.51c-0.38,0.07-0.77,0.31-1.09-0.04c-0.37-0.39-0.17-0.83,0.03-1.23 c0.27-0.52,0.58-1.02,0.86-1.53c1.08-1.98,2.08-3.99,2.52-6.5C128.16,283.48,127.64,283.58,127.14,283.72z M63.93,335.93 c2.74,0.84,5.53,1.25,8.39,1.16c2.5-0.08,2.83,0.25,2.75,2.73c-0.09,2.87,0.3,5.66,1.15,8.39c0.23,0.73,0.46,1.47,1.04,2.16 c0.02-3.82,1.6-6.57,4.88-8.34c0.95-0.51,1.86-1.09,2.73-1.71c1.03-0.74,2.05-1.51,3.06-2.66c-1.07,0.09-1.62,0.62-2.29,0.88 c-0.29,0.11-0.56,0.17-0.83-0.04c-0.32-0.25-0.35-0.59-0.22-0.92c0.23-0.59,0.52-1.16,0.76-1.75c0.57-1.45,0.98-2.92,0.66-4.67 c-2.24,1.61-4.72,2.23-7.13,3.01c-0.3,0.1-0.57,0.17-0.82-0.06c-0.24-0.22-0.24-0.5-0.14-0.81c0.79-2.36,1.42-4.78,2.8-6.9 c0.07-0.11,0.14-0.26-0.09-0.4c-1.59-0.08-3.15,0.22-4.64,0.91c-0.44,0.21-0.89,0.4-1.34,0.59c-0.33,0.14-0.67,0.18-0.96-0.1 c-0.35-0.34-0.21-0.71-0.04-1.08c0.29-0.59,0.74-1.12,0.78-2.05c-0.93,0.84-1.66,1.6-2.25,2.48c-1.06,1.58-2.07,3.2-3.14,4.78 c-0.55,0.81-1.13,1.69-2.07,2.02c-1.63,0.58-3.13,1.72-5.06,1.32C62.56,335.44,63.23,335.72,63.93,335.93z M59.73,335.95 c-0.29-0.19-0.61-0.31-0.96-0.33c-3.23-0.21-6.46-0.36-9.62,0.53c-1.09,0.31-2.15,0.41-3.3,0.39c-2.13-0.02-3.7-0.92-4.83-2.57 c-0.85-1.24-1.96-1.86-3.36-2.11c-1.2-0.22-2.38-0.38-3.26-1.45c-0.54-0.66-1.11-0.43-1.4,0.39c-0.27,0.77-0.18,1.54,0.02,2.31 c0.97,3.63,4.6,6.4,8.38,6.42c0.34,0,0.75-0.23,1.07,0.21c-0.48,0.57-0.96,1.12-1.43,1.68c-1.05,1.25-1.85,2.64-2.42,4.17 c-1.55,4.14-0.52,8.16,2.83,11.02c1.91,1.63,4.08,2.03,6.45,1.22c3.52-1.2,5.69-4.13,5.74-7.86c0.02-1.58,0.07-3.13,0.79-4.57 c0.23-0.46,0.38-0.92-0.11-1.32c-0.48-0.4-0.93-0.13-1.36,0.09c-0.95,0.5-1.88,1.04-2.83,1.54c-2.83,1.47-3.71,3.15-3.28,6.33 c0.15,1.11,0.31,2.22,0.23,3.45c-1.75,0.58-3.46,0.65-5.08-0.33c-2.5-1.52-3.58-3.8-3.35-6.69c0.19-2.39,1.33-4.39,2.84-6.16 c3.07-3.62,7.11-5.22,11.78-5.36c2.4-0.07,4.79,0.1,7.17,0.42c0.48,0.06,0.95,0.25,1.48,0.05C61.19,336.9,60.47,336.42,59.73,335.95 z M74.83,351.89c0.3,2.24,0.43,4.48,0.4,6.74c-0.04,3.74-1.07,7.17-3.45,10.09c-2.03,2.49-4.57,4.28-7.85,4.74 c-2.52,0.35-4.64-0.48-6.3-2.4c-1.5-1.72-1.79-4.12-0.76-6.02c1.25-0.06,2.5,0.16,3.76,0.32c2.06,0.27,3.84-0.28,5.02-2.04 c0.92-1.38,1.63-2.89,2.43-4.35c0.23-0.41,0.32-0.83-0.06-1.21c-0.38-0.38-0.78-0.3-1.21-0.08c-1.44,0.73-2.98,0.83-4.57,0.83 c-2.83,0-5.15,1.2-6.79,3.48c-1.6,2.24-2.25,4.8-0.83,7.32c1.74,3.1,4.47,4.86,8.15,4.88c2.54,0.01,4.78-0.87,6.86-2.27 c1-0.67,1.91-1.47,2.75-2.32c0.43,0.38,0.22,0.73,0.22,1.05c-0.02,3.8,2.69,7.41,6.33,8.45c0.77,0.22,1.54,0.32,2.31,0.08 c0.89-0.28,1.11-0.87,0.44-1.49c-0.86-0.79-1.18-1.74-1.34-2.83c-0.22-1.62-0.94-2.87-2.35-3.87c-2.2-1.55-3.07-4.4-2.29-6.93 c0.73-2.37,0.93-4.78,0.98-7.24c0.05-2.36-0.22-4.57-1.79-6.46c-0.03-0.03-0.07-0.06-0.32-0.28 C74.69,350.83,74.76,351.36,74.83,351.89z M84.57,330.39c0.42-0.26,0.82-0.54,1.26-0.75c0.9-0.44,1.28-0.24,1.41,0.72 c0.25,1.96,0.26,3.9-0.38,5.81c-0.1,0.29-0.41,0.59-0.1,0.99c2-0.82,3.48-2.08,3.86-4.35c0.16-0.92,0.41-1.81,0.57-2.73 c0.44-2.58-0.02-4.87-2.2-6.59c-0.15-0.12-0.29-0.27-0.41-0.42c-1.41-1.77-3.31-2.37-5.48-2.2c-1.71,0.13-3.39,0.51-5.01,1.1 c-1.67,0.61-2.4,2.05-3.02,3.58c1.94-0.67,3.86-0.88,5.84-0.7c2.2,0.21,2.3,0.41,1.11,2.36c-0.99,1.63-1.88,3.3-2.44,5.42 C81.47,332.04,83.06,331.31,84.57,330.39z M71.07,316.93c-2.68-0.54-5.23,0.04-7.78,0.86c-3.24,1.04-6.66,7.16-5.53,10.67 c0.69,2.14,1.92,3.3,3.87,3.98c0.37,0.13,0.78,0.45,1.2,0.05c-2.15-2.78-2.53-7.62-0.76-9.49c0.19,0.2,0.13,0.45,0.12,0.69 c-0.01,1.94,0.5,3.78,1.13,5.58c0.35,1.01,0.99,1.76,2.14,2c0.35-0.48,0.35-1.03,0.38-1.55c0.06-0.98-0.06-1.95-0.24-2.92 c-0.14-0.73-0.19-1.45,0.03-2.18c0.58-1.93,1.53-3.56,3.34-4.64c1.09-0.65,1.91-1.62,2.5-2.81 C71.32,317.06,71.2,316.96,71.07,316.93z M86.68,354.5c1.35-0.13,2.62-0.79,3.81-1.46c1.95-1.09,3.38-2.63,4.08-4.79 c0.47-1.45,0.76-2.93,0.88-4.45c0.08-1.05-0.08-2.08-0.43-3.21c-1.43,0.86-2.41,1.97-3.32,3.19c-1.58,2.12-3.73,3.07-6.37,2.72 c-1.02-0.13-2.03-0.31-3.06-0.21c-0.5,0.05-1.07-0.01-1.42,0.45c0.39,1.27,1.3,1.87,2.43,2.22c2.12,0.65,4.26,1.25,6.68,0.82 c-2.3,1.96-7.31,1.81-10.43-0.51C80.11,353.64,82.93,354.85,86.68,354.5z M44.61,363.57c-1.07,1.12-0.96,2.48,0.31,3.73 c1.23,1.22,2.67,1.3,3.75,0.21c1.06-1.07,1-2.83-0.13-3.94C47.4,362.45,45.68,362.45,44.61,363.57z M146.19,279.62 c-0.13-0.01-0.15,0.01-0.05,0.06c0-0.03,0-0.07,0-0.11C146.14,279.57,146.19,279.62,146.19,279.62z M144.53,270.06 c-0.13-0.01-0.15,0.01-0.05,0.06c0-0.03,0-0.07,0-0.11C144.48,270.01,144.53,270.06,144.53,270.06z" fill="#F3EDBD"/></g></svg>