<svg xmlns="http://www.w3.org/2000/svg" xmlns:xlink="http://www.w3.org/1999/xlink" preserveAspectRatio="xMidYMid meet" version="1.0" viewBox="0.0 -0.0 500.0 17.2" zoomAndPan="magnify" style="fill: rgb(235, 228, 179);" original_string_length="9209"><g><g><g id="__id58_sxt3vhw12e"><path d="M326.77,7.86c-2.87,0-5.76,.13-8.61-.22-1.01-.13-2.06-.28-2.96-.76-.04-.03-.09-.06-.13-.09-.04-.03-.09-.06-.13-.08l-.16-.09-.08-.05-.08-.04-.16-.09-.16-.08-.08-.04-.08-.04c-.05-.03-.11-.05-.17-.08l-.17-.07c-.22-.09-.45-.18-.68-.25-.11-.04-.23-.07-.35-.1l-.18-.04-.09-.02-.09-.02c-.62-.13-1.26-.19-1.9-.17-.64,.02-1.28,.1-1.9,.25-1.25,.3-2.45,.85-3.53,1.58-.54,.37-1.05,.78-1.52,1.23l-.03,.03,.03,.03c.47,.45,.98,.86,1.52,1.23,1.08,.73,2.28,1.28,3.53,1.58,.63,.15,1.26,.24,1.9,.25,.64,.02,1.27-.04,1.9-.17l.09-.02,.09-.02,.18-.04c.12-.03,.23-.06,.35-.1,.23-.07,.46-.15,.68-.24l.17-.07c.06-.02,.11-.05,.17-.08l.08-.04,.08-.04,.16-.08,.16-.09,.08-.04,.08-.05,.16-.09s.08-.05,.13-.08c.05-.03,.09-.07,.14-.1,.9-.47,1.95-.62,2.95-.75,2.85-.35,5.75-.22,8.61-.22,37.55-.03,173.23,0,173.23,0v-1.5s-135.68,.02-173.23,0Z" style="fill: inherit;"/><path d="M287.25,11.6c-.04-.3-.1-.59-.17-.88-.07-.29-.17-.57-.28-.84-.01-.03-.02-.05-.03-.08-.13,.13-.27,.26-.41,.38-.29,.24-.61,.46-.95,.64-.34,.18-.7,.33-1.07,.43-.37,.1-.74,.17-1.12,.21-.37,.03-.75,.03-1.12,0-.37-.03-.73-.09-1.09-.17-.36-.08-.71-.19-1.05-.31-.34-.13-.67-.27-.99-.44-.16-.08-.32-.17-.47-.27l-.12-.07-.11-.07c-.07-.05-.15-.1-.22-.15-.24-.16-.47-.34-.7-.52-.14,.15-.27,.31-.41,.47-.26,.32-.5,.65-.72,1,.93,.86,1.79,1.76,2.63,2.65,.45,.48,.9,.95,1.36,1.41l.17,.17,.04,.04,.04,.04,.08,.08c.06,.05,.11,.11,.17,.16l.17,.15c.23,.2,.47,.39,.71,.57,.24,.18,.49,.34,.75,.48s.52,.26,.78,.35c.26,.09,.52,.15,.78,.18h.19s.03,.02,.05,.02h.23s.06-.01,.09-.02h.09s.03-.02,.04-.02h.04c.24-.06,.47-.15,.68-.27,.01,0,.03-.01,.04-.02l.04-.03,.08-.05s.03-.02,.04-.03l.04-.03,.08-.06s.03-.02,.04-.03l.04-.03,.08-.06,.07-.07,.04-.03,.04-.04,.07-.07,.07-.08,.03-.04,.03-.04,.07-.08,.06-.08,.03-.04,.03-.04,.06-.08,.06-.09c.15-.23,.28-.48,.39-.74,.11-.26,.2-.54,.27-.82,.07-.28,.12-.57,.15-.87,.03-.29,.04-.59,.04-.89,0-.15-.01-.3-.02-.45-.01-.15-.03-.3-.05-.44Z" style="fill: inherit;"/><path d="M284.66,7.32c-.24-.13-.5-.23-.76-.31s-.54-.13-.82-.15c-.28-.02-.57-.02-.86,0-.29,.02-.58,.07-.86,.13-.57,.13-1.13,.34-1.66,.61-.13,.07-.26,.14-.39,.22l-.09,.06-.09,.06c-.06,.04-.13,.08-.19,.12-.14,.1-.28,.2-.42,.3,.14,.11,.28,.21,.42,.3,.06,.04,.13,.08,.19,.12l.09,.06,.09,.06c.13,.08,.26,.15,.39,.22,.53,.27,1.09,.49,1.66,.61,.29,.06,.57,.11,.86,.13s.57,.02,.86,0c.28-.03,.56-.08,.82-.15,.27-.07,.52-.18,.76-.31,.24-.13,.47-.28,.68-.46,.21-.18,.41-.38,.59-.59-.18-.22-.37-.42-.59-.59-.21-.18-.44-.33-.68-.46Z" style="fill: inherit;"/><path d="M277.35,7.29c.23-.18,.46-.36,.7-.52,.07-.05,.15-.1,.22-.15l.11-.07,.12-.07c.15-.09,.31-.18,.47-.27,.32-.17,.65-.31,.99-.44,.34-.13,.69-.23,1.05-.31,.36-.08,.72-.14,1.09-.17s.74-.03,1.12,0c.38,.03,.75,.1,1.12,.21,.37,.1,.73,.25,1.07,.43,.34,.18,.66,.4,.95,.64,.14,.12,.28,.25,.41,.38,.01-.03,.02-.05,.03-.08,.11-.27,.2-.56,.28-.84,.07-.29,.13-.58,.17-.88l.02-.11v-.11l.02-.06v-.05s.01-.07,.01-.11c.01-.14,.01-.29,.01-.43,0-.29-.03-.57-.08-.86-.1-.57-.28-1.12-.55-1.62-.27-.5-.62-.93-1.04-1.25-.21-.16-.43-.29-.67-.38-.24-.09-.48-.15-.74-.17-.13-.01-.26-.01-.39,0-.13,0-.26,.02-.39,.05-.13,.02-.26,.05-.4,.09-.03,0-.07,.02-.1,.03-.03,.01-.06,.02-.1,.03-.07,.03-.14,.05-.21,.08-.55,.21-1.07,.5-1.58,.85-.51,.34-.99,.74-1.47,1.16-.48,.42-.95,.87-1.43,1.32-.24,.23-.48,.46-.73,.68-.06,.06-.12,.11-.19,.17-.06,.06-.13,.11-.19,.17l-.37,.33c-.21,.19-.43,.37-.64,.56,.27,.45,.57,.89,.9,1.3,.13,.16,.27,.32,.41,.47Z" style="fill: inherit;"/><path d="M274.83,6.56c-.68,.57-1.38,1.14-2.09,1.68,.02,.01,.04,.02,.05,.03,.56,.37,1.11,.76,1.65,1.16,.13,.1,.27,.21,.41,.31,.06,.05,.12,.09,.18,.14,.22-.33,.45-.64,.7-.95,.16-.19,.32-.38,.48-.56-.17-.18-.33-.37-.48-.56-.32-.4-.62-.82-.89-1.25Z" style="fill: inherit;"/><path d="M298.06,6.89c-.38-.39-.75-.86-1.09-1.42-.17-.28-.34-.58-.5-.9-.15-.32-.3-.66-.43-1.02-.03-.08-.06-.17-.09-.25h-.02l-.12-.02c-.08-.01-.16-.03-.25-.04-.33-.05-.67-.09-1.01-.11-.09,0-.17-.01-.26-.02-.09,0-.17,0-.26,0h-.52c-.35,0-.69,.02-1.04,.06-.16,.02-.32,.04-.48,.06l-.14,.52c-.22,.83-.52,1.6-.89,2.31h0c-.33,.62-.7,1.15-1.1,1.6-.32,.36-.67,.69-1.04,.97h.02s.02,.03,.03,.04c.1,.07,.19,.15,.26,.21,.02,.02,.05,.04,.07,.06h.02l.02,.03c.18,.16,.41,.38,.63,.64,.4,.45,.77,.98,1.1,1.6h0c.37,.71,.67,1.48,.89,2.31l.14,.52c.16,.02,.32,.04,.48,.06,.34,.04,.69,.05,1.04,.06,.35,0,.69,0,1.03-.03,.34-.02,.68-.06,1.01-.11,.08-.01,.17-.03,.25-.04l.12-.02h.02c.03-.09,.06-.17,.09-.25,.13-.36,.28-.7,.43-1.02,.16-.32,.32-.62,.5-.9,.35-.56,.72-1.03,1.09-1.42,.75-.78,1.52-1.22,2.17-1.46,.54-.2,1.01-.26,1.35-.27h0c-.35-.02-.81-.08-1.35-.28-.65-.23-1.42-.68-2.17-1.46Z" style="fill: inherit;"/><path d="M194.91,7.36c-1.08-.73-2.28-1.28-3.53-1.58-.63-.15-1.27-.24-1.9-.25-.64-.02-1.27,.04-1.89,.17l-.09,.02-.09,.02-.18,.04c-.12,.03-.23,.06-.35,.1-.23,.07-.46,.15-.68,.25l-.17,.07c-.06,.02-.11,.05-.16,.08l-.08,.04-.08,.04-.16,.08-.16,.09-.08,.04-.08,.05-.16,.09s-.08,.05-.13,.08c-.04,.03-.08,.06-.13,.09-.91,.48-1.96,.63-2.96,.76-2.85,.35-5.75,.22-8.61,.22-37.55,.03-173.23,0-173.23,0v1.5s135.68-.02,173.23,0c2.87,0,5.76-.13,8.61,.22,1,.12,2.04,.28,2.95,.75,.05,.04,.09,.07,.14,.1,.04,.03,.09,.06,.13,.08l.16,.09,.08,.05,.08,.04,.16,.09,.16,.08,.08,.04,.08,.04c.06,.03,.11,.05,.16,.08l.17,.07c.22,.09,.45,.18,.68,.24,.11,.04,.23,.07,.35,.1l.18,.04,.09,.02,.09,.02c.62,.13,1.26,.19,1.9,.17,.64-.02,1.28-.1,1.9-.25,1.25-.3,2.45-.85,3.53-1.58,.54-.37,1.05-.78,1.52-1.23l.03-.03-.03-.03c-.47-.45-.98-.86-1.52-1.23Z" style="fill: inherit;"/><path d="M222.65,9.46c-.23,.18-.46,.36-.7,.52-.07,.05-.15,.1-.22,.15l-.11,.07-.12,.07c-.15,.09-.31,.18-.47,.27-.32,.17-.65,.31-.99,.44-.34,.13-.69,.23-1.05,.31-.36,.08-.72,.14-1.09,.17-.37,.03-.74,.03-1.12,0-.38-.03-.75-.1-1.12-.21-.37-.1-.73-.25-1.07-.43-.34-.18-.66-.4-.95-.64-.14-.12-.28-.25-.41-.38-.01,.03-.02,.05-.03,.08-.11,.27-.2,.56-.28,.84-.07,.29-.13,.58-.17,.88-.02,.15-.04,.3-.05,.44-.01,.15-.02,.3-.02,.45,0,.3,0,.6,.04,.89,.03,.29,.08,.58,.15,.87,.07,.28,.16,.56,.27,.82,.11,.26,.24,.51,.39,.74l.06,.09,.06,.08,.03,.04,.03,.04,.06,.08,.07,.08,.03,.04,.03,.04,.07,.08,.07,.07,.04,.04,.04,.03,.07,.07,.08,.06,.04,.03s.03,.02,.04,.03l.08,.06,.04,.03s.03,.02,.04,.03l.08,.05,.04,.03s.03,.02,.04,.02c.22,.12,.44,.21,.68,.26h.04s.03,.01,.04,.02h.09s.06,.02,.09,.02h.23s.03,0,.05,0h.19c.26-.04,.52-.1,.78-.2,.26-.09,.52-.21,.78-.35,.26-.14,.51-.3,.75-.48,.24-.18,.48-.37,.71-.57l.17-.15c.06-.05,.11-.1,.17-.16l.08-.08,.04-.04,.04-.04,.17-.17c.46-.46,.91-.93,1.36-1.41,.85-.89,1.7-1.79,2.63-2.65-.22-.35-.46-.68-.72-1-.13-.16-.27-.32-.41-.47Z" style="fill: inherit;"/><path d="M220.78,7.88l-.09-.06c-.13-.08-.26-.15-.39-.22-.53-.27-1.09-.49-1.66-.61-.29-.06-.57-.11-.86-.13-.29-.02-.57-.02-.86,0-.28,.03-.56,.08-.82,.15s-.52,.18-.76,.31c-.24,.13-.47,.28-.68,.46-.21,.18-.41,.38-.59,.59,.18,.22,.37,.42,.59,.59,.21,.18,.44,.33,.68,.46,.24,.13,.5,.23,.76,.31,.27,.08,.54,.13,.82,.15,.28,.02,.57,.02,.86,0,.29-.02,.58-.07,.86-.13,.57-.13,1.13-.34,1.66-.61,.13-.07,.26-.14,.39-.22l.09-.06,.09-.06c.06-.04,.13-.08,.19-.12,.14-.1,.28-.2,.42-.3-.14-.11-.28-.21-.42-.3-.06-.04-.13-.08-.19-.12l-.09-.06Z" style="fill: inherit;"/><path d="M212.71,4.82v.11l.02,.11,.02,.11c.04,.3,.1,.59,.17,.88,.07,.29,.17,.57,.28,.84,.01,.03,.02,.05,.03,.08,.13-.13,.27-.26,.41-.38,.29-.24,.61-.46,.95-.64,.34-.18,.7-.33,1.07-.43,.37-.1,.74-.17,1.12-.21,.37-.03,.75-.03,1.12,0,.37,.03,.73,.09,1.09,.17,.36,.08,.71,.19,1.05,.31,.34,.13,.67,.27,.99,.44,.16,.08,.32,.17,.47,.27l.12,.07,.11,.07c.07,.05,.15,.1,.22,.15,.24,.16,.47,.34,.7,.52,.14-.15,.27-.31,.41-.47,.33-.41,.63-.84,.91-1.3-.22-.19-.43-.37-.64-.56l-.37-.33c-.06-.06-.13-.11-.19-.17-.06-.06-.13-.11-.19-.17-.25-.23-.49-.46-.73-.68-.48-.45-.95-.9-1.43-1.32-.48-.42-.97-.82-1.47-1.16-.51-.34-1.03-.64-1.58-.85-.07-.03-.14-.05-.21-.08-.03-.01-.07-.02-.1-.03-.03-.01-.07-.02-.1-.03-.13-.04-.26-.07-.4-.09-.13-.02-.26-.04-.39-.05-.13,0-.26,0-.39,0-.25,.02-.5,.08-.74,.17-.24,.09-.46,.22-.67,.38-.42,.32-.77,.75-1.04,1.25-.27,.5-.45,1.05-.55,1.62-.05,.28-.08,.57-.08,.86,0,.14,0,.29,.01,.43,0,.04,0,.07,0,.11Z" style="fill: inherit;"/><path d="M224.28,7.81c-.16,.19-.32,.38-.48,.56,.17,.18,.33,.37,.48,.56,.25,.31,.48,.62,.7,.95,.06-.05,.12-.09,.18-.14,.14-.1,.27-.21,.41-.31,.54-.4,1.09-.79,1.65-1.16l.05-.03c-.72-.54-1.41-1.1-2.09-1.68-.27,.43-.57,.85-.89,1.25Z" style="fill: inherit;"/><path d="M210.14,7.65c-.4-.45-.77-.99-1.1-1.6h0c-.37-.71-.67-1.48-.89-2.31l-.14-.52c-.16-.02-.32-.04-.48-.06-.34-.04-.69-.05-1.04-.06h-.52c-.09,0-.17,0-.26,.01-.09,0-.17,.01-.26,.02-.34,.02-.68,.06-1.01,.11-.08,.01-.17,.03-.25,.04l-.12,.02h-.02c-.03,.09-.06,.17-.09,.25-.13,.36-.28,.7-.43,1.02-.16,.32-.32,.62-.49,.9-.35,.56-.72,1.03-1.09,1.42-.75,.78-1.52,1.22-2.17,1.46-.54,.2-1.01,.26-1.35,.27h0c.35,.02,.81,.08,1.35,.28,.65,.23,1.42,.68,2.17,1.46,.38,.39,.75,.86,1.09,1.42,.17,.28,.34,.58,.49,.9,.15,.32,.3,.66,.43,1.02,.03,.08,.06,.17,.09,.25h.02l.12,.02c.08,.01,.17,.03,.25,.04,.33,.05,.67,.09,1.01,.11,.34,.03,.69,.03,1.03,.03,.35-.01,.69-.03,1.04-.06,.16-.02,.32-.04,.48-.06l.14-.52c.22-.83,.52-1.6,.89-2.3h0c.33-.62,.7-1.16,1.1-1.6,.23-.26,.46-.48,.63-.64l.02-.02h.02s.05-.05,.07-.07c.07-.06,.16-.14,.26-.21,.01,0,.02-.02,.03-.02h.02c-.38-.29-.73-.62-1.04-.98Z" style="fill: inherit;"/><path d="M228.46 8.23L250 9.12 271.54 8.23 250 7.33 228.46 8.23z" style="fill: inherit;"/></g></g></g></svg>