<?xml version="1.0" encoding="UTF-8"?><svg xmlns="http://www.w3.org/2000/svg" xmlns:xlink="http://www.w3.org/1999/xlink" data-name="Layer 1" height="1484.8" preserveAspectRatio="xMidYMid meet" version="1.0" viewBox="231.5 262.6 1484.0 1484.8" width="1484.0" zoomAndPan="magnify"><defs><linearGradient gradientTransform="matrix(.4 .84 -.9 .43 -1635.4 339.5)" gradientUnits="userSpaceOnUse" id="a" x1="2273.26" x2="1432.03" xlink:actuate="onLoad" xlink:show="other" xlink:type="simple" xmlns:xlink="http://www.w3.org/1999/xlink" y1="-1587.72" y2="-2590.25"><stop offset="0" stop-color="#ffeec3"/><stop offset=".18" stop-color="#f7eea5"/><stop offset=".38" stop-color="#f3d170"/><stop offset=".47" stop-color="#edc55d"/><stop offset=".57" stop-color="#e4b64f"/><stop offset=".62" stop-color="#af722a"/><stop offset=".65" stop-color="#af722a"/><stop offset=".72" stop-color="#f2d86d"/><stop offset=".79" stop-color="#f7e67e"/><stop offset=".84" stop-color="#f7f2a5"/><stop offset=".89" stop-color="#fff2c6"/><stop offset=".94" stop-color="#e5ae23"/><stop offset=".94" stop-color="#e5ae23"/><stop offset="1" stop-color="#fbcb4b"/></linearGradient><linearGradient id="b" x1="1148.06" x2="2489.65" xlink:actuate="onLoad" xlink:href="#a" xlink:show="other" xlink:type="simple" xmlns:xlink="http://www.w3.org/1999/xlink" y1="-2072.55" y2="-2072.55"/><linearGradient id="c" x1="2303.05" x2="1514.92" xlink:actuate="onLoad" xlink:href="#a" xlink:show="other" xlink:type="simple" xmlns:xlink="http://www.w3.org/1999/xlink" y1="-1541.43" y2="-2480.69"/><linearGradient id="d" x1="1248.87" x2="2505.78" xlink:actuate="onLoad" xlink:href="#a" xlink:show="other" xlink:type="simple" xmlns:xlink="http://www.w3.org/1999/xlink" y1="-1995.66" y2="-1995.66"/></defs><path d="M1564.52,724.74a597,597,0,0,1,57.6,238.77c2.43,80.24-10.88,159.63-39.56,236A637.6,637.6,0,0,1,1455.9,1406a659.73,659.73,0,0,1-449,212.63,637.63,637.63,0,0,1-240-32.83c-77.25-26.19-147.11-66.2-207.64-118.92a601.47,601.47,0,0,1-205.83-434.61,615.13,615.13,0,0,1,39.56-236A637.57,637.57,0,0,1,519.7,589.77a659.77,659.77,0,0,1,449-212.62,637.46,637.46,0,0,1,240,32.83A614.85,614.85,0,0,1,1416.29,528.9a596.78,596.78,0,0,1,148.23,195.84m4-1.88c-147-310.44-526.19-439-846.9-287.11s-461.5,526.68-314.48,837.12S933.3,1711.86,1254,1560s461.5-526.67,314.48-837.12Z" fill="url(#a)"/><path d="M1536.26,703.46a596.75,596.75,0,0,1,57.6,238.76c2.43,80.24-10.88,159.64-39.56,236a637.7,637.7,0,0,1-126.66,206.46,659.77,659.77,0,0,1-449,212.62,637.65,637.65,0,0,1-240-32.82c-77.25-26.19-147.11-66.2-207.64-118.93a601.47,601.47,0,0,1-205.83-434.61c-2.43-80.23,10.88-159.63,39.56-236A637.6,637.6,0,0,1,491.44,568.49a659.84,659.84,0,0,1,449-212.63,637.66,637.66,0,0,1,240,32.83c77.25,26.19,147.11,66.2,207.64,118.92a596.92,596.92,0,0,1,148.23,195.85m4-1.88c-147-310.45-526.19-439-846.9-287.11s-461.5,526.67-314.48,837.12,526.19,439,846.9,287.11,461.5-526.67,314.48-837.12Z" fill="url(#b)"/><path d="M1480.05,822.54a559.24,559.24,0,0,1,54,223.7,576.31,576.31,0,0,1-37.06,221.1,597.37,597.37,0,0,1-118.66,193.43A618.25,618.25,0,0,1,957.65,1660a597.36,597.36,0,0,1-224.83-30.76A576.11,576.11,0,0,1,538.28,1517.8a563.49,563.49,0,0,1-192.83-407.18,575.85,575.85,0,0,1,37.06-221.09A597.41,597.41,0,0,1,501.17,696.09a618.18,618.18,0,0,1,420.64-199.2,597.38,597.38,0,0,1,224.83,30.75,576.28,576.28,0,0,1,194.54,111.42,559.28,559.28,0,0,1,138.87,183.48m3.72-1.76c-137.75-290.85-493-411.28-793.45-269S258,1045.23,395.69,1336.08s493,411.28,793.45,269,432.37-493.43,294.63-784.29Z" fill="url(#c)"/><path d="M1453.58,802.6a559.4,559.4,0,0,1,54,223.7,576.13,576.13,0,0,1-37.07,221.1,597.3,597.3,0,0,1-118.66,193.43A618.13,618.13,0,0,1,931.18,1640a597.4,597.4,0,0,1-224.84-30.75,576.16,576.16,0,0,1-194.53-111.42A563.55,563.55,0,0,1,319,1090.68,576.31,576.31,0,0,1,356,869.58,597.5,597.5,0,0,1,474.7,676.15,618.13,618.13,0,0,1,895.33,477a597.43,597.43,0,0,1,224.84,30.75A576.16,576.16,0,0,1,1314.7,619.12,559.31,559.31,0,0,1,1453.58,802.6m3.71-1.76c-137.74-290.85-493-411.28-793.44-269s-432.38,493.43-294.63,784.29,493,411.28,793.44,269S1595,1091.7,1457.29,800.84Z" fill="url(#d)"/></svg>